<?xml version="1.0" encoding="UTF-8" standalone="no"?>
<!-- Created with Inkscape (http://www.inkscape.org/) -->

<svg
   xmlns:dc="http://purl.org/dc/elements/1.1/"
   xmlns:cc="http://creativecommons.org/ns#"
   xmlns:rdf="http://www.w3.org/1999/02/22-rdf-syntax-ns#"
   xmlns:svg="http://www.w3.org/2000/svg"
   xmlns="http://www.w3.org/2000/svg"
   xmlns:xlink="http://www.w3.org/1999/xlink"
   xmlns:sodipodi="http://sodipodi.sourceforge.net/DTD/sodipodi-0.dtd"
   xmlns:inkscape="http://www.inkscape.org/namespaces/inkscape"
   width="210mm"
   height="297mm"
   viewBox="0 0 210 297"
   version="1.1"
   id="svg8"
   inkscape:version="0.92.1 r15371"
   sodipodi:docname="рисунок.svg">
  <defs
     id="defs2">
    <inkscape:path-effect
       effect="powerstroke"
       id="path-effect4601"
       is_visible="true"
       offset_points="0,0.13229166"
       sort_points="true"
       interpolator_type="CubicBezierJohan"
       interpolator_beta="0.2"
       start_linecap_type="zerowidth"
       linejoin_type="extrp_arc"
       miter_limit="4"
       end_linecap_type="zerowidth" />
    <inkscape:path-effect
       effect="simplify"
       id="path-effect4599"
       is_visible="true"
       steps="1"
       threshold="0.5"
       smooth_angles="360"
       helper_size="0"
       simplify_individual_paths="false"
       simplify_just_coalesce="false"
       simplifyindividualpaths="false"
       simplifyJustCoalesce="false" />
  </defs>
  <sodipodi:namedview
     id="base"
     pagecolor="#ffffff"
     bordercolor="#666666"
     borderopacity="1.0"
     inkscape:pageopacity="0.0"
     inkscape:pageshadow="2"
     inkscape:zoom="8"
     inkscape:cx="175.42111"
     inkscape:cy="938.04227"
     inkscape:document-units="mm"
     inkscape:current-layer="layer1"
     showgrid="false"
     inkscape:snap-text-baseline="false"
     inkscape:window-width="1920"
     inkscape:window-height="1013"
     inkscape:window-x="-9"
     inkscape:window-y="-9"
     inkscape:window-maximized="1"
     showguides="false" />
  <metadata
     id="metadata5">
    <rdf:RDF>
      <cc:Work
         rdf:about="">
        <dc:format>image/svg+xml</dc:format>
        <dc:type
           rdf:resource="http://purl.org/dc/dcmitype/StillImage" />
        <dc:title />
      </cc:Work>
    </rdf:RDF>
  </metadata>
  <g
     inkscape:label="Layer 1"
     inkscape:groupmode="layer"
     id="layer1"
     style="display:inline">
    <use
       id="use4649"
       inkscape:spray-origin="#path4647"
       xlink:href="#path4647"
       x="0"
       y="0"
       width="100%"
       height="100%"
       transform="translate(-0.26165095,11.264039)" />
    <use
       id="use4651"
       inkscape:spray-origin="#path4647"
       xlink:href="#path4647"
       x="0"
       y="0"
       width="100%"
       height="100%"
       transform="translate(-1.2501794,11.803674)" />
    <use
       id="use4653"
       inkscape:spray-origin="#path4647"
       xlink:href="#path4647"
       x="0"
       y="0"
       width="100%"
       height="100%"
       transform="translate(-0.96174448,11.812849)" />
    <use
       id="use4655"
       inkscape:spray-origin="#path4647"
       xlink:href="#path4647"
       x="0"
       y="0"
       width="100%"
       height="100%"
       transform="translate(-0.71810462,10.669774)" />
    <use
       id="use4665"
       inkscape:spray-origin="#path4647"
       xlink:href="#path4647"
       x="0"
       y="0"
       width="100%"
       height="100%"
       transform="translate(-1.6000244,10.925267)" />
    <use
       id="use4667"
       inkscape:spray-origin="#path4647"
       xlink:href="#path4647"
       x="0"
       y="0"
       width="100%"
       height="100%"
       transform="translate(-2.0318385,11.223289)" />
    <use
       id="use4669"
       inkscape:spray-origin="#path4647"
       xlink:href="#path4647"
       x="0"
       y="0"
       width="100%"
       height="100%"
       transform="translate(-1.8977226,11.157846)" />
    <use
       id="use4673"
       inkscape:spray-origin="#path4647"
       xlink:href="#path4647"
       x="0"
       y="0"
       width="100%"
       height="100%"
       transform="translate(-1.694869,11.470282)" />
    <use
       id="use4677"
       inkscape:spray-origin="#path4647"
       xlink:href="#path4647"
       x="0"
       y="0"
       width="100%"
       height="100%"
       transform="translate(-0.54246569,10.925704)" />
    <use
       id="use4679"
       inkscape:spray-origin="#path4647"
       xlink:href="#path4647"
       x="0"
       y="0"
       width="100%"
       height="100%"
       transform="translate(-0.79273666,11.65606)" />
    <use
       id="use4681"
       inkscape:spray-origin="#path4647"
       xlink:href="#path4647"
       x="0"
       y="0"
       width="100%"
       height="100%"
       transform="translate(-0.4049066,11.632226)" />
    <use
       id="use4687"
       inkscape:spray-origin="#path4647"
       xlink:href="#path4647"
       x="0"
       y="0"
       width="100%"
       height="100%"
       transform="translate(-0.6636166,10.867895)" />
    <use
       id="use4689"
       inkscape:spray-origin="#path4647"
       xlink:href="#path4647"
       x="0"
       y="0"
       width="100%"
       height="100%"
       transform="translate(0.24900598,11.204534)" />
    <g
       id="g4991"
       transform="matrix(0.78736689,0,0,0.72816405,8.6705143,7.8567282)">
      <use
         transform="translate(-0.21171857,9.3962274)"
         height="100%"
         width="100%"
         y="0"
         x="0"
         xlink:href="#path4647"
         inkscape:spray-origin="#path4647"
         id="use4657" />
      <use
         transform="translate(-0.51001269,9.8522679)"
         height="100%"
         width="100%"
         y="0"
         x="0"
         xlink:href="#path4647"
         inkscape:spray-origin="#path4647"
         id="use4659" />
      <use
         transform="translate(-0.67449019,10.014667)"
         height="100%"
         width="100%"
         y="0"
         x="0"
         xlink:href="#path4647"
         inkscape:spray-origin="#path4647"
         id="use4661" />
      <use
         transform="translate(-0.74036866,10.012765)"
         height="100%"
         width="100%"
         y="0"
         x="0"
         xlink:href="#path4647"
         inkscape:spray-origin="#path4647"
         id="use4663" />
      <use
         transform="translate(-1.3779296,9.7460161)"
         height="100%"
         width="100%"
         y="0"
         x="0"
         xlink:href="#path4647"
         inkscape:spray-origin="#path4647"
         id="use4671" />
      <use
         transform="translate(-0.5783521,10.00309)"
         height="100%"
         width="100%"
         y="0"
         x="0"
         xlink:href="#path4647"
         inkscape:spray-origin="#path4647"
         id="use4675" />
      <use
         transform="translate(-0.22707349,9.8363771)"
         height="100%"
         width="100%"
         y="0"
         x="0"
         xlink:href="#path4647"
         inkscape:spray-origin="#path4647"
         id="use4683" />
      <use
         transform="translate(-0.4472386,9.8467639)"
         height="100%"
         width="100%"
         y="0"
         x="0"
         xlink:href="#path4647"
         inkscape:spray-origin="#path4647"
         id="use4685" />
      <use
         transform="translate(7.3499137,2.9650943)"
         height="100%"
         width="100%"
         y="0"
         x="0"
         xlink:href="#path4647"
         inkscape:spray-origin="#path4647"
         id="use4691" />
      <use
         transform="translate(3.4505485,4.0029969)"
         height="100%"
         width="100%"
         y="0"
         x="0"
         xlink:href="#path4647"
         inkscape:spray-origin="#path4647"
         id="use4707" />
      <use
         transform="translate(3.8203519,4.06739)"
         height="100%"
         width="100%"
         y="0"
         x="0"
         xlink:href="#path4647"
         inkscape:spray-origin="#path4647"
         id="use4709" />
      <use
         transform="translate(3.8486039,5.189096)"
         height="100%"
         width="100%"
         y="0"
         x="0"
         xlink:href="#path4647"
         inkscape:spray-origin="#path4647"
         id="use4711" />
      <use
         transform="translate(5.2467457,5.4149487)"
         height="100%"
         width="100%"
         y="0"
         x="0"
         xlink:href="#path4647"
         inkscape:spray-origin="#path4647"
         id="use4713" />
      <use
         transform="translate(1.8970523,6.0160303)"
         height="100%"
         width="100%"
         y="0"
         x="0"
         xlink:href="#path4647"
         inkscape:spray-origin="#path4647"
         id="use4719" />
      <use
         transform="translate(3.2222031,4.5011903)"
         height="100%"
         width="100%"
         y="0"
         x="0"
         xlink:href="#path4647"
         inkscape:spray-origin="#path4647"
         id="use4725" />
      <use
         transform="translate(3.2414127,5.0291939)"
         height="100%"
         width="100%"
         y="0"
         x="0"
         xlink:href="#path4647"
         inkscape:spray-origin="#path4647"
         id="use4727" />
      <use
         transform="translate(4.8007956,3.8396491)"
         height="100%"
         width="100%"
         y="0"
         x="0"
         xlink:href="#path4647"
         inkscape:spray-origin="#path4647"
         id="use4729" />
      <use
         transform="translate(4.657735,4.5053643)"
         height="100%"
         width="100%"
         y="0"
         x="0"
         xlink:href="#path4647"
         inkscape:spray-origin="#path4647"
         id="use4731" />
      <use
         transform="translate(5.4401636,4.7279302)"
         height="100%"
         width="100%"
         y="0"
         x="0"
         xlink:href="#path4647"
         inkscape:spray-origin="#path4647"
         id="use4733" />
      <path
         sodipodi:nodetypes="ccsccccscsccc"
         inkscape:connector-curvature="0"
         id="path4496"
         d="m 39.895707,36.673399 5.943678,5.087212 c 1.204597,1.282561 3.257769,0.630666 4.9651,0.636056 1.621652,0.0051 3.267325,0.695125 4.771118,-0.594135 l 5.875507,-4.930997 c 0.789876,5.842938 1.446136,7.805308 -2.032368,11.769644 0.745945,1.845541 1.322386,3.731108 2.110673,5.55936 0,0 -2.094021,0.378883 -5.109351,2.304538 -3.196313,2.041233 -5.724056,4.992089 -5.724056,4.992089 0,0 -2.726493,-2.745682 -4.925202,-4.462674 -1.983599,-1.54901 -5.941614,-3.049604 -5.941614,-3.049604 l 2.01981,-5.409782 C 38.257869,44.267693 39.314719,42.238591 39.895707,36.673399 Z"
         style="fill:none;fill-opacity:1;stroke:#f30000;stroke-width:0.07990417;stroke-linecap:butt;stroke-linejoin:miter;stroke-miterlimit:4;stroke-dasharray:none;stroke-opacity:1" />
      <path
         sodipodi:nodetypes="ccccscscc"
         inkscape:connector-curvature="0"
         id="path4511"
         d="m 39.829192,53.984887 c 1.527119,-1.402064 4.784658,-4.044923 6.886302,-3.328506 2.796237,1.065735 2.268154,6.670593 2.193576,9.113723 l -0.0029,0.01024 c 0,0 0.418421,-0.52316 1.711929,-0.500201 1.397451,0.02481 1.7108,0.411125 1.7108,0.411125 -0.04089,-2.495691 -0.33134,-8.223267 2.243277,-9.030388 2.856582,-0.895513 6.957239,3.539659 6.957239,3.539659 v 0"
         style="fill:none;stroke:#f70000;stroke-width:0.079375;stroke-linecap:butt;stroke-linejoin:miter;stroke-miterlimit:4;stroke-dasharray:none;stroke-opacity:1" />
      <path
         sodipodi:nodetypes="ccc"
         inkscape:connector-curvature="0"
         id="path4513"
         d="m 45.252017,51.392253 c 2.269395,0.291151 2.27704,0.697639 2.695443,2.108399 -1.326573,-0.121828 -2.030014,-0.640578 -2.695443,-2.108399 z"
         style="fill:none;stroke:#ff0000;stroke-width:0.079375;stroke-linecap:butt;stroke-linejoin:miter;stroke-miterlimit:4;stroke-dasharray:none;stroke-opacity:1" />
      <path
         sodipodi:nodetypes="ccc"
         inkscape:connector-curvature="0"
         id="path4513-4"
         d="m 56.111062,51.398157 c -2.269395,0.291151 -2.27704,0.697639 -2.695444,2.108399 1.326574,-0.121828 2.030015,-0.640578 2.695444,-2.108399 z"
         style="fill:none;stroke:#ff0000;stroke-width:0.07937501;stroke-linecap:butt;stroke-linejoin:miter;stroke-miterlimit:4;stroke-dasharray:none;stroke-opacity:1" />
      <path
         sodipodi:nodetypes="cccccccccc"
         inkscape:connector-curvature="0"
         id="path4530"
         d="m 42.199207,47.238808 c -1.686946,-1.679473 -2.516135,-4.024527 -0.95728,-6.785422 1.958242,0.355077 3.061294,1.675692 3.654557,3.571875 -0.569424,0.114551 -0.844228,-0.540974 -0.844228,-0.540974 -0.678098,0.506966 -0.625804,1.557049 -0.625804,1.557049 -0.203097,-0.307184 -0.269919,-0.626361 -0.333655,-0.956771 -0.581817,0.520047 -0.422278,1.23786 -0.391822,1.905697 -0.319668,-0.225994 -0.424646,-0.552422 -0.54446,-0.841528 -0.443513,1.054258 -0.116907,1.438608 0.04269,2.090074 z"
         style="fill:none;stroke:#fd0000;stroke-width:0.079375;stroke-linecap:butt;stroke-linejoin:miter;stroke-miterlimit:4;stroke-dasharray:none;stroke-opacity:1" />
      <path
         sodipodi:nodetypes="cccccccccc"
         inkscape:connector-curvature="0"
         id="path4530-5"
         d="m 59.166617,47.253476 c 1.686946,-1.679473 2.516135,-4.024527 0.95728,-6.785422 -1.958242,0.355077 -3.061294,1.675692 -3.654557,3.571875 0.569424,0.114551 0.844228,-0.540974 0.844228,-0.540974 0.678098,0.506966 0.625804,1.557049 0.625804,1.557049 0.203097,-0.307184 0.269919,-0.626361 0.333655,-0.956771 0.581817,0.520047 0.422278,1.23786 0.391822,1.905697 0.319668,-0.225994 0.424646,-0.552423 0.54446,-0.841528 0.443513,1.054257 0.116907,1.438608 -0.04269,2.090074 z"
         style="fill:none;stroke:#fd0000;stroke-width:0.07937501;stroke-linecap:butt;stroke-linejoin:miter;stroke-miterlimit:4;stroke-dasharray:none;stroke-opacity:1" />
      <path
         sodipodi:nodetypes="ccc"
         inkscape:connector-curvature="0"
         id="path4547"
         d="m 52.767838,57.634766 c 1.049196,-0.607967 1.64233,-1.392775 5.804297,-0.79375 v 0"
         style="fill:none;stroke:#ff0000;stroke-width:0.079375;stroke-linecap:butt;stroke-linejoin:miter;stroke-miterlimit:4;stroke-dasharray:none;stroke-opacity:1" />
      <path
         sodipodi:nodetypes="cc"
         inkscape:connector-curvature="0"
         id="path4547-6"
         d="m 52.733619,57.901666 c 1.30995,-0.788898 3.291822,-1.005673 6.688998,0.124023"
         style="fill:none;stroke:#ff0000;stroke-width:0.07937501;stroke-linecap:butt;stroke-linejoin:miter;stroke-miterlimit:4;stroke-dasharray:none;stroke-opacity:1" />
      <path
         sodipodi:nodetypes="cc"
         inkscape:connector-curvature="0"
         id="path4547-5"
         d="m 52.758424,58.182785 c 1.888435,-0.874427 4.781292,0.02017 5.936589,0.802018"
         style="fill:none;stroke:#ff0000;stroke-width:0.07937501;stroke-linecap:butt;stroke-linejoin:miter;stroke-miterlimit:4;stroke-dasharray:none;stroke-opacity:1" />
      <path
         sodipodi:nodetypes="ccc"
         inkscape:connector-curvature="0"
         id="path4547-60"
         d="m 48.541786,57.632526 c -1.049196,-0.607967 -1.64233,-1.392775 -5.804297,-0.79375 v 0"
         style="fill:none;stroke:#ff0000;stroke-width:0.07937501;stroke-linecap:butt;stroke-linejoin:miter;stroke-miterlimit:4;stroke-dasharray:none;stroke-opacity:1" />
      <path
         sodipodi:nodetypes="cc"
         inkscape:connector-curvature="0"
         id="path4547-6-0"
         d="m 48.576005,57.899426 c -1.30995,-0.788898 -3.291822,-1.005673 -6.688998,0.124023"
         style="fill:none;stroke:#ff0000;stroke-width:0.07937501;stroke-linecap:butt;stroke-linejoin:miter;stroke-miterlimit:4;stroke-dasharray:none;stroke-opacity:1" />
      <path
         sodipodi:nodetypes="cc"
         inkscape:connector-curvature="0"
         id="path4547-5-0"
         d="m 48.5512,58.180545 c -1.888435,-0.874427 -4.781292,0.02017 -5.936589,0.802018"
         style="fill:none;stroke:#ff0000;stroke-width:0.07937501;stroke-linecap:butt;stroke-linejoin:miter;stroke-miterlimit:4;stroke-dasharray:none;stroke-opacity:1" />
      <path
         inkscape:connector-curvature="0"
         id="path4605"
         d="m 49.953269,60.694503 c -0.408953,-0.39265 -0.794245,-0.763691 -0.856205,-0.824539 l -0.112654,-0.110633 0.162264,-0.102926 c 0.393906,-0.249857 1.075481,-0.363101 1.814782,-0.30153 0.243052,0.02024 0.553389,0.06531 0.689639,0.100161 0.25281,0.06466 0.561935,0.20238 0.602851,0.268581 0.0132,0.02138 -0.190953,0.253741 -0.487284,0.554599 -0.280508,0.284797 -0.635976,0.6556 -0.789929,0.824005 l -0.279911,0.306189 z"
         style="opacity:0;fill:#000000;fill-opacity:1;stroke:#ff0000;stroke-width:0.00661458;stroke-miterlimit:4;stroke-dasharray:none;stroke-opacity:1" />
      <path
         inkscape:connector-curvature="0"
         id="path4607"
         d="m 49.953269,60.694503 c -0.408953,-0.39265 -0.794245,-0.763691 -0.856205,-0.824539 l -0.112654,-0.110633 0.162264,-0.102926 c 0.393906,-0.249857 1.075481,-0.363101 1.814782,-0.30153 0.243052,0.02024 0.553389,0.06531 0.689639,0.100161 0.25281,0.06466 0.561935,0.20238 0.602851,0.268581 0.0132,0.02138 -0.190953,0.253741 -0.487284,0.554599 -0.280508,0.284797 -0.635976,0.6556 -0.789929,0.824005 l -0.279911,0.306189 z"
         style="opacity:0;fill:#000000;fill-opacity:1;stroke:#ff0000;stroke-width:0.00661458;stroke-miterlimit:4;stroke-dasharray:none;stroke-opacity:1" />
      <path
         inkscape:connector-curvature="0"
         id="path4609"
         d="m 49.953269,60.694503 c -0.408953,-0.39265 -0.794245,-0.763691 -0.856205,-0.824539 l -0.112654,-0.110633 0.162264,-0.102926 c 0.393906,-0.249857 1.075481,-0.363101 1.814782,-0.30153 0.243052,0.02024 0.553389,0.06531 0.689639,0.100161 0.25281,0.06466 0.561935,0.20238 0.602851,0.268581 0.0132,0.02138 -0.190953,0.253741 -0.487284,0.554599 -0.280508,0.284797 -0.635976,0.6556 -0.789929,0.824005 l -0.279911,0.306189 z"
         style="opacity:0;fill:#000000;fill-opacity:1;stroke:#ff0000;stroke-width:0.00661458;stroke-miterlimit:4;stroke-dasharray:none;stroke-opacity:1" />
      <path
         inkscape:connector-curvature="0"
         id="path4611"
         d="m 49.953269,60.694503 c -0.408953,-0.39265 -0.794245,-0.763691 -0.856205,-0.824539 l -0.112654,-0.110633 0.162264,-0.102926 c 0.393906,-0.249857 1.075481,-0.363101 1.814782,-0.30153 0.243052,0.02024 0.553389,0.06531 0.689639,0.100161 0.25281,0.06466 0.561935,0.20238 0.602851,0.268581 0.0132,0.02138 -0.190953,0.253741 -0.487284,0.554599 -0.280508,0.284797 -0.635976,0.6556 -0.789929,0.824005 l -0.279911,0.306189 z"
         style="opacity:0;fill:#000000;fill-opacity:1;stroke:#ff0000;stroke-width:0.00661458;stroke-miterlimit:4;stroke-dasharray:none;stroke-opacity:1" />
      <path
         inkscape:connector-curvature="0"
         id="path4613"
         d="m 49.953269,60.694503 c -0.408953,-0.39265 -0.794245,-0.763691 -0.856205,-0.824539 l -0.112654,-0.110633 0.162264,-0.102926 c 0.393906,-0.249857 1.075481,-0.363101 1.814782,-0.30153 0.243052,0.02024 0.553389,0.06531 0.689639,0.100161 0.25281,0.06466 0.561935,0.20238 0.602851,0.268581 0.0132,0.02138 -0.190953,0.253741 -0.487284,0.554599 -0.280508,0.284797 -0.635976,0.6556 -0.789929,0.824005 l -0.279911,0.306189 z"
         style="opacity:0;fill:#000000;fill-opacity:1;stroke:#ff0000;stroke-width:0.00661458;stroke-miterlimit:4;stroke-dasharray:none;stroke-opacity:1" />
      <path
         inkscape:connector-curvature="0"
         id="path4615"
         d="m 49.953269,60.694503 c -0.408953,-0.39265 -0.794245,-0.763691 -0.856205,-0.824539 l -0.112654,-0.110633 0.162264,-0.102926 c 0.393906,-0.249857 1.075481,-0.363101 1.814782,-0.30153 0.243052,0.02024 0.553389,0.06531 0.689639,0.100161 0.25281,0.06466 0.561935,0.20238 0.602851,0.268581 0.0132,0.02138 -0.190953,0.253741 -0.487284,0.554599 -0.280508,0.284797 -0.635976,0.6556 -0.789929,0.824005 l -0.279911,0.306189 z"
         style="opacity:0;fill:#000000;fill-opacity:1;stroke:#ff0000;stroke-width:0.00661458;stroke-miterlimit:4;stroke-dasharray:none;stroke-opacity:1" />
      <path
         inkscape:connector-curvature="0"
         id="path4617"
         d="m 49.953269,60.694503 c -0.408953,-0.39265 -0.794245,-0.763691 -0.856205,-0.824539 l -0.112654,-0.110633 0.162264,-0.102926 c 0.393906,-0.249857 1.075481,-0.363101 1.814782,-0.30153 0.243052,0.02024 0.553389,0.06531 0.689639,0.100161 0.25281,0.06466 0.561935,0.20238 0.602851,0.268581 0.0132,0.02138 -0.190953,0.253741 -0.487284,0.554599 -0.280508,0.284797 -0.635976,0.6556 -0.789929,0.824005 l -0.279911,0.306189 z"
         style="opacity:0;fill:#000000;fill-opacity:1;stroke:#ff0000;stroke-width:0.00661458;stroke-miterlimit:4;stroke-dasharray:none;stroke-opacity:1" />
      <path
         inkscape:connector-curvature="0"
         id="path4619"
         d="m 49.953269,60.694503 c -0.408953,-0.39265 -0.794245,-0.763691 -0.856205,-0.824539 l -0.112654,-0.110633 0.162264,-0.102926 c 0.393906,-0.249857 1.075481,-0.363101 1.814782,-0.30153 0.243052,0.02024 0.553389,0.06531 0.689639,0.100161 0.25281,0.06466 0.561935,0.20238 0.602851,0.268581 0.0132,0.02138 -0.190953,0.253741 -0.487284,0.554599 -0.280508,0.284797 -0.635976,0.6556 -0.789929,0.824005 l -0.279911,0.306189 z"
         style="opacity:0;fill:#000000;fill-opacity:1;stroke:#ff0000;stroke-width:0.00661458;stroke-miterlimit:4;stroke-dasharray:none;stroke-opacity:1" />
      <path
         inkscape:connector-curvature="0"
         id="path4621"
         d="m 49.953269,60.694503 c -0.408953,-0.39265 -0.794245,-0.763691 -0.856205,-0.824539 l -0.112654,-0.110633 0.162264,-0.102926 c 0.393906,-0.249857 1.075481,-0.363101 1.814782,-0.30153 0.243052,0.02024 0.553389,0.06531 0.689639,0.100161 0.25281,0.06466 0.561935,0.20238 0.602851,0.268581 0.0132,0.02138 -0.190953,0.253741 -0.487284,0.554599 -0.280508,0.284797 -0.635976,0.6556 -0.789929,0.824005 l -0.279911,0.306189 z"
         style="opacity:0;fill:#000000;fill-opacity:1;stroke:#000000;stroke-width:0.00661458;stroke-miterlimit:4;stroke-dasharray:none;stroke-opacity:1" />
      <path
         inkscape:connector-curvature="0"
         id="path4623"
         d="m 49.953269,60.694503 c -0.408953,-0.39265 -0.794245,-0.763691 -0.856205,-0.824539 l -0.112654,-0.110633 0.162264,-0.102926 c 0.393906,-0.249857 1.075481,-0.363101 1.814782,-0.30153 0.243052,0.02024 0.553389,0.06531 0.689639,0.100161 0.25281,0.06466 0.561935,0.20238 0.602851,0.268581 0.0132,0.02138 -0.190953,0.253741 -0.487284,0.554599 -0.280508,0.284797 -0.635976,0.6556 -0.789929,0.824005 l -0.279911,0.306189 z"
         style="opacity:0;fill:#000000;fill-opacity:1;stroke:#000000;stroke-width:0.00661458;stroke-miterlimit:4;stroke-dasharray:none;stroke-opacity:1" />
      <path
         inkscape:connector-curvature="0"
         id="path4625"
         d="m 49.953269,60.694503 c -0.408953,-0.39265 -0.794245,-0.763691 -0.856205,-0.824539 l -0.112654,-0.110633 0.162264,-0.102926 c 0.393906,-0.249857 1.075481,-0.363101 1.814782,-0.30153 0.243052,0.02024 0.553389,0.06531 0.689639,0.100161 0.25281,0.06466 0.561935,0.20238 0.602851,0.268581 0.0132,0.02138 -0.190953,0.253741 -0.487284,0.554599 -0.280508,0.284797 -0.635976,0.6556 -0.789929,0.824005 l -0.279911,0.306189 z"
         style="opacity:0;fill:#000000;fill-opacity:1;stroke:#000000;stroke-width:0.00661458;stroke-miterlimit:4;stroke-dasharray:none;stroke-opacity:1" />
      <path
         inkscape:connector-curvature="0"
         id="path4627"
         d="m 49.953269,60.694503 c -0.408953,-0.39265 -0.794245,-0.763691 -0.856205,-0.824539 l -0.112654,-0.110633 0.162264,-0.102926 c 0.393906,-0.249857 1.075481,-0.363101 1.814782,-0.30153 0.243052,0.02024 0.553389,0.06531 0.689639,0.100161 0.25281,0.06466 0.561935,0.20238 0.602851,0.268581 0.0132,0.02138 -0.190953,0.253741 -0.487284,0.554599 -0.280508,0.284797 -0.635976,0.6556 -0.789929,0.824005 l -0.279911,0.306189 z"
         style="opacity:0;fill:#000000;fill-opacity:1;stroke:#000000;stroke-width:0.00661458;stroke-miterlimit:4;stroke-dasharray:none;stroke-opacity:1" />
      <path
         inkscape:connector-curvature="0"
         id="path4629"
         d="m 49.953269,60.694503 c -0.408953,-0.39265 -0.794245,-0.763691 -0.856205,-0.824539 l -0.112654,-0.110633 0.162264,-0.102926 c 0.393906,-0.249857 1.075481,-0.363101 1.814782,-0.30153 0.243052,0.02024 0.553389,0.06531 0.689639,0.100161 0.25281,0.06466 0.561935,0.20238 0.602851,0.268581 0.0132,0.02138 -0.190953,0.253741 -0.487284,0.554599 -0.280508,0.284797 -0.635976,0.6556 -0.789929,0.824005 l -0.279911,0.306189 z"
         style="opacity:0;fill:#000000;fill-opacity:1;stroke:#000000;stroke-width:0.00661458;stroke-miterlimit:4;stroke-dasharray:none;stroke-opacity:1" />
      <path
         inkscape:connector-curvature="0"
         id="path4631"
         d="m 49.953269,60.694503 c -0.408953,-0.39265 -0.794245,-0.763691 -0.856205,-0.824539 l -0.112654,-0.110633 0.162264,-0.102926 c 0.393906,-0.249857 1.075481,-0.363101 1.814782,-0.30153 0.243052,0.02024 0.553389,0.06531 0.689639,0.100161 0.25281,0.06466 0.561935,0.20238 0.602851,0.268581 0.0132,0.02138 -0.190953,0.253741 -0.487284,0.554599 -0.280508,0.284797 -0.635976,0.6556 -0.789929,0.824005 l -0.279911,0.306189 z"
         style="opacity:0;fill:#000000;fill-opacity:1;stroke:#000000;stroke-width:0.00661458;stroke-miterlimit:4;stroke-dasharray:none;stroke-opacity:1" />
      <path
         inkscape:connector-curvature="0"
         id="path4633"
         d="m 48.974311,59.406967 c 0.0113,-0.145521 0.03682,-0.763157 0.0567,-1.372527 0.104542,-3.203797 -0.229828,-5.22647 -1.063297,-6.432126 -0.321964,-0.465738 -0.798955,-0.841536 -1.288076,-1.014817 -0.189842,-0.06726 -0.276837,-0.07622 -0.744141,-0.07665 -0.476023,-5.29e-4 -0.565703,0.009 -0.892969,0.09398 -1.31708,0.341998 -2.968268,1.344475 -4.712306,2.860958 -0.172484,0.149982 -0.317531,0.260742 -0.322326,0.246134 -0.0048,-0.01461 0.42128,-1.177716 0.946833,-2.584686 L 41.910285,48.56911 41.53006,48.086779 c -1.242645,-1.576334 -1.896168,-2.95334 -2.114611,-4.455586 -0.06954,-0.478194 -0.07856,-1.767294 -0.01667,-2.381249 0.04164,-0.413018 0.481904,-4.012142 0.525573,-4.296485 l 0.02492,-0.162372 2.910417,2.490169 c 1.600729,1.369591 2.979718,2.554443 3.06442,2.633003 0.329035,0.305176 0.738637,0.502296 1.284515,0.618168 0.436451,0.09264 1.249672,0.09005 2.364867,-0.0075 1.004233,-0.08788 1.625253,-0.08052 2.596223,0.03078 1.488636,0.170635 2.337131,0.0456 3.085066,-0.454623 0.155945,-0.104296 1.594673,-1.290957 3.197175,-2.637025 1.602504,-1.346068 2.925011,-2.451306 2.938907,-2.456085 0.02611,-0.009 0.388069,2.555338 0.50071,3.547491 0.189302,1.66741 0.169733,2.816013 -0.06502,3.816594 -0.295989,1.26157 -0.949354,2.444551 -2.125535,3.848488 l -0.343339,0.409827 0.209973,0.543144 c 0.115485,0.298731 0.434824,1.160783 0.709642,1.915671 0.448886,1.233043 0.857252,2.315115 1.001233,2.653041 0.02882,0.06763 0.05239,0.132932 0.05239,0.145118 0,0.0122 -0.122782,-0.09543 -0.272851,-0.239138 -1.686857,-1.615408 -3.381373,-2.695877 -4.776793,-3.045812 -0.311409,-0.07809 -0.424212,-0.0898 -0.870408,-0.09037 -0.552392,-7.94e-4 -0.77053,0.0388 -1.115988,0.20212 -1.161114,0.548918 -1.823305,2.271943 -1.991752,5.182553 -0.01881,0.324892 -0.03419,1.286383 -0.03419,2.136645 v 1.545929 l -0.158408,-0.07581 c -0.849231,-0.406427 -2.572756,-0.342919 -3.094961,0.11404 -0.05993,0.05245 -0.0612,0.04598 -0.04128,-0.210476 z M 42.266946,47.294011 c -0.01164,-0.05002 -0.07592,-0.269544 -0.142832,-0.487826 -0.153504,-0.500737 -0.167863,-0.881245 -0.0478,-1.266618 l 0.0752,-0.241361 0.119976,0.239821 c 0.10773,0.215336 0.3674,0.524018 0.440817,0.524018 0.01564,0 0.02543,-0.279051 0.02178,-0.620117 -0.0074,-0.691719 0.02061,-0.835287 0.21558,-1.104443 l 0.102743,-0.141835 0.07102,0.263472 c 0.06708,0.248873 0.18578,0.517099 0.290656,0.65682 0.0422,0.05623 0.04929,0.03281 0.06944,-0.229269 0.01233,-0.160539 0.04573,-0.382196 0.07421,-0.492569 0.06358,-0.246465 0.249195,-0.607531 0.373573,-0.726689 l 0.09252,-0.08864 0.09282,0.125425 c 0.189783,0.256442 0.396599,0.373473 0.659989,0.373473 0.100772,0 0.183219,-0.01355 0.183219,-0.03009 0,-0.01656 -0.0689,-0.213749 -0.153104,-0.438216 -0.55717,-1.485217 -1.364874,-2.403356 -2.566482,-2.91738 -0.272867,-0.116729 -0.85616,-0.285404 -0.986951,-0.285404 -0.08115,0 -0.416391,0.687099 -0.590704,1.210681 -0.229015,0.687892 -0.279532,0.998063 -0.279524,1.716272 3e-6,0.522296 0.01206,0.682877 0.07146,0.95113 0.235376,1.063146 0.737349,1.970963 1.590627,2.87665 0.115893,0.12301 0.217964,0.223652 0.226827,0.223652 0.0089,0 0.0066,-0.04092 -0.0051,-0.09095 z m 17.451631,-0.570508 c 1.246235,-1.534805 1.589238,-3.275129 0.997315,-5.060156 -0.109318,-0.329666 -0.532175,-1.25703 -0.57295,-1.256538 -0.05692,7.94e-4 -0.58421,0.138655 -0.766479,0.200551 -0.297434,0.101008 -0.763985,0.339487 -1.048359,0.535874 -0.77851,0.537639 -1.40848,1.443152 -1.825003,2.623249 -0.11317,0.320638 -0.106635,0.343418 0.09841,0.343027 0.232635,-5.29e-4 0.519295,-0.182645 0.669698,-0.425662 l 0.06975,-0.112704 0.1114,0.129241 c 0.250984,0.291176 0.390944,0.685236 0.4278,1.204478 l 0.02156,0.303816 0.111652,-0.176898 c 0.110993,-0.17585 0.273629,-0.626695 0.276199,-0.765648 0.0013,-0.06577 0.01072,-0.06173 0.09967,0.04234 0.05408,0.06328 0.131611,0.197223 0.172288,0.297656 0.06865,0.169497 0.0736,0.2295 0.06889,0.835776 l -0.0051,0.653167 0.09469,-0.06742 c 0.141997,-0.101111 0.287423,-0.289481 0.394349,-0.510794 l 0.09563,-0.197927 0.03815,0.09871 c 0.08555,0.221377 0.137531,0.565576 0.119793,0.793237 -0.0099,0.127331 -0.07832,0.43793 -0.152003,0.690221 -0.07368,0.252291 -0.133966,0.467662 -0.133966,0.478602 0,0.03951 0.439771,-0.413797 0.636592,-0.656193 z"
         style="opacity:0;fill:#000000;fill-opacity:1;stroke:#000000;stroke-width:0.00661458;stroke-miterlimit:4;stroke-dasharray:none;stroke-opacity:1" />
      <path
         inkscape:connector-curvature="0"
         id="path4635"
         d="m 48.974311,59.406967 c 0.0113,-0.145521 0.03682,-0.763157 0.0567,-1.372527 0.104542,-3.203797 -0.229828,-5.22647 -1.063297,-6.432126 -0.321964,-0.465738 -0.798955,-0.841536 -1.288076,-1.014817 -0.189842,-0.06726 -0.276837,-0.07622 -0.744141,-0.07665 -0.476023,-5.29e-4 -0.565703,0.009 -0.892969,0.09398 -1.31708,0.341998 -2.968268,1.344475 -4.712306,2.860958 -0.172484,0.149982 -0.317531,0.260742 -0.322326,0.246134 -0.0048,-0.01461 0.42128,-1.177716 0.946833,-2.584686 L 41.910285,48.56911 41.53006,48.086779 c -1.242645,-1.576334 -1.896168,-2.95334 -2.114611,-4.455586 -0.06954,-0.478194 -0.07856,-1.767294 -0.01667,-2.381249 0.04164,-0.413018 0.481904,-4.012142 0.525573,-4.296485 l 0.02492,-0.162372 2.910417,2.490169 c 1.600729,1.369591 2.979718,2.554443 3.06442,2.633003 0.329035,0.305176 0.738637,0.502296 1.284515,0.618168 0.436451,0.09264 1.249672,0.09005 2.364867,-0.0075 1.004233,-0.08788 1.625253,-0.08052 2.596223,0.03078 1.488636,0.170635 2.337131,0.0456 3.085066,-0.454623 0.155945,-0.104296 1.594673,-1.290957 3.197175,-2.637025 1.602504,-1.346068 2.925011,-2.451306 2.938907,-2.456085 0.02611,-0.009 0.388069,2.555338 0.50071,3.547491 0.189302,1.66741 0.169733,2.816013 -0.06502,3.816594 -0.295989,1.26157 -0.949354,2.444551 -2.125535,3.848488 l -0.343339,0.409827 0.209973,0.543144 c 0.115485,0.298731 0.434824,1.160783 0.709642,1.915671 0.448886,1.233043 0.857252,2.315115 1.001233,2.653041 0.02882,0.06763 0.05239,0.132932 0.05239,0.145118 0,0.0122 -0.122782,-0.09543 -0.272851,-0.239138 -1.686857,-1.615408 -3.381373,-2.695877 -4.776793,-3.045812 -0.311409,-0.07809 -0.424212,-0.0898 -0.870408,-0.09037 -0.552392,-7.94e-4 -0.77053,0.0388 -1.115988,0.20212 -1.161114,0.548918 -1.823305,2.271943 -1.991752,5.182553 -0.01881,0.324892 -0.03419,1.286383 -0.03419,2.136645 v 1.545929 l -0.158408,-0.07581 c -0.849231,-0.406427 -2.572756,-0.342919 -3.094961,0.11404 -0.05993,0.05245 -0.0612,0.04598 -0.04128,-0.210476 z M 42.266946,47.294011 c -0.01164,-0.05002 -0.07592,-0.269544 -0.142832,-0.487826 -0.153504,-0.500737 -0.167863,-0.881245 -0.0478,-1.266618 l 0.0752,-0.241361 0.119976,0.239821 c 0.10773,0.215336 0.3674,0.524018 0.440817,0.524018 0.01564,0 0.02543,-0.279051 0.02178,-0.620117 -0.0074,-0.691719 0.02061,-0.835287 0.21558,-1.104443 l 0.102743,-0.141835 0.07102,0.263472 c 0.06708,0.248873 0.18578,0.517099 0.290656,0.65682 0.0422,0.05623 0.04929,0.03281 0.06944,-0.229269 0.01233,-0.160539 0.04573,-0.382196 0.07421,-0.492569 0.06358,-0.246465 0.249195,-0.607531 0.373573,-0.726689 l 0.09252,-0.08864 0.09282,0.125425 c 0.189783,0.256442 0.396599,0.373473 0.659989,0.373473 0.100772,0 0.183219,-0.01355 0.183219,-0.03009 0,-0.01656 -0.0689,-0.213749 -0.153104,-0.438216 -0.55717,-1.485217 -1.364874,-2.403356 -2.566482,-2.91738 -0.272867,-0.116729 -0.85616,-0.285404 -0.986951,-0.285404 -0.08115,0 -0.416391,0.687099 -0.590704,1.210681 -0.229015,0.687892 -0.279532,0.998063 -0.279524,1.716272 3e-6,0.522296 0.01206,0.682877 0.07146,0.95113 0.235376,1.063146 0.737349,1.970963 1.590627,2.87665 0.115893,0.12301 0.217964,0.223652 0.226827,0.223652 0.0089,0 0.0066,-0.04092 -0.0051,-0.09095 z m 17.451631,-0.570508 c 1.246235,-1.534805 1.589238,-3.275129 0.997315,-5.060156 -0.109318,-0.329666 -0.532175,-1.25703 -0.57295,-1.256538 -0.05692,7.94e-4 -0.58421,0.138655 -0.766479,0.200551 -0.297434,0.101008 -0.763985,0.339487 -1.048359,0.535874 -0.77851,0.537639 -1.40848,1.443152 -1.825003,2.623249 -0.11317,0.320638 -0.106635,0.343418 0.09841,0.343027 0.232635,-5.29e-4 0.519295,-0.182645 0.669698,-0.425662 l 0.06975,-0.112704 0.1114,0.129241 c 0.250984,0.291176 0.390944,0.685236 0.4278,1.204478 l 0.02156,0.303816 0.111652,-0.176898 c 0.110993,-0.17585 0.273629,-0.626695 0.276199,-0.765648 0.0013,-0.06577 0.01072,-0.06173 0.09967,0.04234 0.05408,0.06328 0.131611,0.197223 0.172288,0.297656 0.06865,0.169497 0.0736,0.2295 0.06889,0.835776 l -0.0051,0.653167 0.09469,-0.06742 c 0.141997,-0.101111 0.287423,-0.289481 0.394349,-0.510794 l 0.09563,-0.197927 0.03815,0.09871 c 0.08555,0.221377 0.137531,0.565576 0.119793,0.793237 -0.0099,0.127331 -0.07832,0.43793 -0.152003,0.690221 -0.07368,0.252291 -0.133966,0.467662 -0.133966,0.478602 0,0.03951 0.439771,-0.413797 0.636592,-0.656193 z"
         style="opacity:0;fill:#000000;fill-opacity:1;stroke:#000000;stroke-width:0.00661458;stroke-miterlimit:4;stroke-dasharray:none;stroke-opacity:1" />
      <path
         inkscape:connector-curvature="0"
         id="path4637"
         d="m 52.383655,59.135644 c -0.03612,-0.717648 0.0061,-3.169343 0.06568,-3.813183 0.164865,-1.781886 0.511744,-3.0203 1.062011,-3.79155 0.302454,-0.423916 0.741924,-0.729962 1.238089,-0.862208 0.287115,-0.07652 1.008814,-0.07517 1.352846,0.0026 1.162529,0.262607 2.47586,0.997453 3.888433,2.175688 0.558221,0.465613 1.414791,1.277601 1.390026,1.317672 -0.0088,0.01423 -0.06986,0.03598 -0.135686,0.04833 -0.06583,0.01236 -0.330169,0.09013 -0.58741,0.17285 -1.259321,0.404936 -2.581195,1.034346 -3.969924,1.890278 l -0.475602,0.293132 -0.541171,0.01974 c -0.863079,0.03147 -1.416701,0.15707 -1.994649,0.452522 -0.282167,0.144246 -0.819406,0.459722 -0.942107,0.55322 -0.0079,0.006 0.0024,0.02751 0.02254,0.04779 0.02711,0.02712 0.156538,-0.035 0.489055,-0.234709 0.248701,-0.14937 0.52133,-0.301781 0.605846,-0.33869 0.506391,-0.22116 1.05846,-0.338283 1.774232,-0.37641 l 0.429948,-0.02289 -0.362857,0.255431 -0.362855,0.255434 -0.412493,0.02923 c -0.506154,0.03587 -0.878459,0.103725 -1.291453,0.235374 -0.324731,0.10351 -0.927243,0.381024 -0.927243,0.427077 0,0.0714 0.0871,0.05312 0.330875,-0.06945 0.519716,-0.261308 1.1768,-0.435486 1.819013,-0.482179 0.172725,-0.01257 0.306604,-0.01508 0.297508,-0.0056 -0.0091,0.0095 -0.143039,0.113268 -0.297656,0.230669 l -0.28112,0.213458 -0.326022,0.02278 c -0.616839,0.04312 -1.492988,0.270386 -1.492988,0.387271 0,0.06031 0.03911,0.05349 0.381936,-0.06657 0.283239,-0.0992 0.687203,-0.178615 1.089808,-0.214265 l 0.214974,-0.01905 -0.115435,0.0908 c -0.281151,0.22115 -0.978717,0.823304 -1.335743,1.153039 -0.214329,0.197942 -0.431557,0.39407 -0.482733,0.43584 l -0.09304,0.07594 z m 1.340517,-5.616461 c 1.063082,-0.169675 1.677021,-0.64148 2.258353,-1.735524 0.08216,-0.154614 0.160034,-0.316907 0.173062,-0.360648 l 0.02368,-0.07953 -0.210558,0.02199 c -0.355844,0.03715 -0.922803,0.154284 -1.242796,0.256765 -0.541776,0.173508 -0.868196,0.458925 -1.054573,0.922105 -0.09536,0.236987 -0.310714,0.918583 -0.310875,0.983919 -1.25e-4,0.05107 -0.0155,0.05145 0.363701,-0.0091 z"
         style="opacity:0;fill:#000000;fill-opacity:1;stroke:#000000;stroke-width:0.00661458;stroke-miterlimit:4;stroke-dasharray:none;stroke-opacity:1" />
      <path
         inkscape:connector-curvature="0"
         id="path4639"
         d="m 52.383655,59.135644 c -0.03612,-0.717648 0.0061,-3.169343 0.06568,-3.813183 0.164865,-1.781886 0.511744,-3.0203 1.062011,-3.79155 0.302454,-0.423916 0.741924,-0.729962 1.238089,-0.862208 0.287115,-0.07652 1.008814,-0.07517 1.352846,0.0026 1.162529,0.262607 2.47586,0.997453 3.888433,2.175688 0.558221,0.465613 1.414791,1.277601 1.390026,1.317672 -0.0088,0.01423 -0.06986,0.03598 -0.135686,0.04833 -0.06583,0.01236 -0.330169,0.09013 -0.58741,0.17285 -1.259321,0.404936 -2.581195,1.034346 -3.969924,1.890278 l -0.475602,0.293132 -0.541171,0.01974 c -0.863079,0.03147 -1.416701,0.15707 -1.994649,0.452522 -0.282167,0.144246 -0.819406,0.459722 -0.942107,0.55322 -0.0079,0.006 0.0024,0.02751 0.02254,0.04779 0.02711,0.02712 0.156538,-0.035 0.489055,-0.234709 0.248701,-0.14937 0.52133,-0.301781 0.605846,-0.33869 0.506391,-0.22116 1.05846,-0.338283 1.774232,-0.37641 l 0.429948,-0.02289 -0.362857,0.255431 -0.362855,0.255434 -0.412493,0.02923 c -0.506154,0.03587 -0.878459,0.103725 -1.291453,0.235374 -0.324731,0.10351 -0.927243,0.381024 -0.927243,0.427077 0,0.0714 0.0871,0.05312 0.330875,-0.06945 0.519716,-0.261308 1.1768,-0.435486 1.819013,-0.482179 0.172725,-0.01257 0.306604,-0.01508 0.297508,-0.0056 -0.0091,0.0095 -0.143039,0.113268 -0.297656,0.230669 l -0.28112,0.213458 -0.326022,0.02278 c -0.616839,0.04312 -1.492988,0.270386 -1.492988,0.387271 0,0.06031 0.03911,0.05349 0.381936,-0.06657 0.283239,-0.0992 0.687203,-0.178615 1.089808,-0.214265 l 0.214974,-0.01905 -0.115435,0.0908 c -0.281151,0.22115 -0.978717,0.823304 -1.335743,1.153039 -0.214329,0.197942 -0.431557,0.39407 -0.482733,0.43584 l -0.09304,0.07594 z M 53.45132,53.5468 c -0.07266,-0.019 -0.07386,-0.0041 0.02691,-0.334438 0.04663,-0.152882 0.07874,-0.284012 0.07135,-0.291402 -0.01466,-0.01466 -0.189211,0.54846 -0.189211,0.61046 0,0.02101 0.03348,0.03645 0.07441,0.03434 0.056,-0.0029 0.06009,-0.0076 0.01654,-0.01897 z m 0.231511,-0.03307 c -0.03183,-0.0083 -0.08392,-0.0083 -0.115756,0 -0.03183,0.0083 -0.0058,0.01513 0.05788,0.01513 0.06367,0 0.08971,-0.0068 0.05788,-0.01513 z m 0.197807,-0.03319 c -0.03218,-0.0084 -0.07683,-0.0078 -0.09922,0.0013 -0.02238,0.009 0.0039,0.01593 0.05851,0.01524 0.05457,-7.94e-4 0.07289,-0.0081 0.04071,-0.01648 z M 53.658026,53.4576 c 0,-0.007 -0.04465,-0.01934 -0.09922,-0.02734 -0.05457,-0.008 -0.09922,-0.0024 -0.09922,0.01278 0,0.01503 0.04465,0.02735 0.09922,0.02735 0.05457,0 0.09922,-0.0057 0.09922,-0.01278 z m 0.59812,-0.05646 c 0.411927,-0.134435 0.720645,-0.323112 1.030721,-0.629933 0.159163,-0.157496 0.289388,-0.30571 0.289388,-0.329369 0,-0.04778 0.0066,-0.05431 -0.194249,0.192135 -0.26583,0.326181 -0.745207,0.625652 -1.230598,0.768768 -0.116745,0.03442 -0.188675,0.06372 -0.159846,0.06511 0.02883,0.0013 0.147889,-0.02863 0.264584,-0.06672 z m -0.441654,0.01326 c -0.03218,-0.0084 -0.07683,-0.0078 -0.09922,0.0013 -0.02238,0.009 0.0039,0.01593 0.05851,0.01524 0.05457,-7.93e-4 0.07289,-0.0081 0.04071,-0.01648 z m 0.388949,-0.07862 c 0.121909,-0.03766 0.216468,-0.07365 0.210129,-0.07999 -0.0063,-0.0064 -0.130561,0.02368 -0.276048,0.06669 -0.145486,0.04302 -0.240046,0.07901 -0.210129,0.07999 0.02992,0.0011 0.154138,-0.02904 0.276048,-0.06669 z m -0.649283,-0.129977 c 0,-0.03127 -0.0105,-0.02516 -0.02842,0.01654 -0.01564,0.03638 -0.02842,0.08847 -0.02842,0.115755 0,0.03127 0.0105,0.02516 0.02842,-0.01654 0.01564,-0.03638 0.02842,-0.08847 0.02842,-0.115755 z m 1.072568,-0.0376 c 0.292934,-0.148677 0.750578,-0.536728 0.848278,-0.71928 0.01617,-0.03019 -0.107005,0.08011 -0.273685,0.245102 -0.208335,0.206221 -0.37542,0.337949 -0.534569,0.421457 -0.127331,0.06681 -0.219755,0.121907 -0.205388,0.122433 0.01437,5.3e-4 0.08878,-0.03084 0.165364,-0.06971 z m -0.838552,-0.656934 c 7.2e-5,-0.0091 -0.01543,0.01019 -0.03441,0.04283 -0.04446,0.07641 -0.195562,0.519938 -0.193009,0.566544 0.0019,0.03248 0.227116,-0.571315 0.22742,-0.609375 z m 0.08915,-0.285448 c 0.129045,-0.194416 0.343244,-0.366713 0.612566,-0.492734 0.09727,-0.04551 0.139655,-0.07339 0.09418,-0.06195 -0.241207,0.06068 -0.573132,0.30143 -0.730064,0.529524 -0.10055,0.146143 -0.29677,0.58351 -0.293484,0.654161 0.0011,0.02024 0.04635,-0.07346 0.100915,-0.208206 0.05456,-0.134749 0.151712,-0.324104 0.215889,-0.42079 z m 0.0087,0.128352 c 0.07525,-0.145783 0.275008,-0.346549 0.454684,-0.456973 0.07016,-0.04312 0.11611,-0.07886 0.102106,-0.07943 -0.05079,-0.0021 -0.285436,0.164213 -0.404787,0.286832 -0.111064,0.114107 -0.272589,0.373594 -0.232555,0.373594 0.0091,0 0.04534,-0.05581 0.08055,-0.124023 z m 1.920121,-0.256818 c 0.187349,-0.317185 0.31265,-0.558985 0.346795,-0.669224 0.01971,-0.06362 0.01093,-0.07441 -0.06051,-0.07441 -0.124658,0 -0.587203,0.07232 -0.570349,0.08918 0.008,0.008 0.134138,-0.0029 0.280233,-0.02424 0.146095,-0.02135 0.282075,-0.03336 0.302176,-0.02666 0.04117,0.01373 -0.22392,0.554993 -0.390118,0.796555 -0.05779,0.084 -0.105079,0.161208 -0.105079,0.171572 0,0.0541 0.0458,-0.007 0.196855,-0.262777 z m 0.05385,-0.264081 c 0.04433,-0.09095 0.06536,-0.143039 0.04673,-0.115755 -0.07531,0.110281 -0.363525,0.607198 -0.362736,0.625396 0.0016,0.03429 0.232412,-0.338138 0.316008,-0.509641 z m -1.143678,-0.100906 c 0.118237,-0.0458 0.170326,-0.07418 0.115755,-0.06306 -0.09331,0.019 -0.383077,0.139245 -0.347265,0.144092 0.0091,0.0013 0.113276,-0.03523 0.23151,-0.08104 z m 0.321773,-0.100976 c -0.01098,-0.01098 -0.03952,-0.01217 -0.06339,-0.0026 -0.02638,0.01056 -0.01855,0.01839 0.01998,0.01998 0.03487,0.0013 0.0544,-0.0064 0.04341,-0.01738 z m 0.124712,-0.09538 c 0.181901,-0.04307 0.302805,-0.07937 0.268676,-0.08069 -0.07392,-0.0029 -0.649015,0.129357 -0.649015,0.149196 0,0.0204 0.02003,0.0168 0.380339,-0.06851 z m 0.115755,0.04921 c 0.06547,-0.02095 0.06891,-0.02648 0.01654,-0.02648 -0.03638,0 -0.103351,0.01191 -0.148828,0.02648 -0.06547,0.02098 -0.06891,0.02648 -0.01654,0.02648 0.03638,0 0.103354,-0.01191 0.148828,-0.02648 z m 0.757846,-0.132291 c -0.0013,-0.03271 -0.01151,-0.02708 -0.03024,0.01654 -0.03907,0.09092 -0.03907,0.14314 0,0.08268 0.01765,-0.02728 0.03124,-0.07193 0.03024,-0.09922 z m -0.535234,0.0763 c -0.03218,-0.0084 -0.07683,-0.0078 -0.09922,0.0013 -0.02238,0.009 0.0039,0.01593 0.05851,0.01524 0.05457,-7.93e-4 0.07289,-0.0081 0.04071,-0.01648 z m 0.198438,-0.03307 c -0.03218,-0.0084 -0.07683,-0.0078 -0.09922,0.0013 -0.02238,0.009 0.0039,0.01593 0.05851,0.01524 0.05457,-7.93e-4 0.07289,-0.0081 0.04071,-0.01648 z m 0.23214,-0.03295 c -0.03183,-0.0083 -0.08392,-0.0083 -0.115755,0 -0.03183,0.0083 -0.0058,0.01513 0.05788,0.01513 0.06367,0 0.08971,-0.0068 0.05788,-0.01513 z"
         style="opacity:0;fill:#000000;fill-opacity:1;stroke:#000000;stroke-width:0.00661458;stroke-miterlimit:4;stroke-dasharray:none;stroke-opacity:1" />
      <path
         inkscape:connector-curvature="0"
         id="path4641"
         d="m 53.49926,53.400433 c 0.0094,-0.02519 0.06533,-0.201695 0.124275,-0.392219 0.297172,-0.960575 0.630523,-1.225401 1.830377,-1.454118 0.196466,-0.03745 0.401291,-0.06809 0.455168,-0.06809 h 0.09795 l -0.119761,0.239779 c -0.310701,0.622067 -0.773221,1.146164 -1.223923,1.386864 -0.375751,0.200673 -1.208426,0.406527 -1.16409,0.287787 z"
         style="opacity:0;fill:#000000;fill-opacity:1;stroke:#000000;stroke-width:0.00661458;stroke-miterlimit:4;stroke-dasharray:none;stroke-opacity:1" />
      <path
         inkscape:connector-curvature="0"
         id="path4643"
         d="m 53.49926,53.400433 c 0.0094,-0.02519 0.06533,-0.201695 0.124275,-0.392219 0.297172,-0.960575 0.630523,-1.225401 1.830377,-1.454118 0.196466,-0.03745 0.401291,-0.06809 0.455168,-0.06809 h 0.09795 l -0.119761,0.239779 c -0.310701,0.622067 -0.773221,1.146164 -1.223923,1.386864 -0.375751,0.200673 -1.208426,0.406527 -1.16409,0.287787 z"
         style="opacity:0;fill:#000000;fill-opacity:1;stroke:#000000;stroke-width:0.00661458;stroke-miterlimit:4;stroke-dasharray:none;stroke-opacity:1" />
      <path
         inkscape:connector-curvature="0"
         id="path4645"
         d="m 52.383655,59.135644 c -0.03612,-0.717648 0.0061,-3.169343 0.06568,-3.813183 0.164865,-1.781886 0.511744,-3.0203 1.062011,-3.79155 0.302454,-0.423916 0.741924,-0.729962 1.238089,-0.862208 0.287115,-0.07652 1.008814,-0.07517 1.352846,0.0026 1.162529,0.262607 2.47586,0.997453 3.888433,2.175688 0.558221,0.465613 1.414791,1.277601 1.390026,1.317672 -0.0088,0.01423 -0.06986,0.03598 -0.135686,0.04833 -0.06583,0.01236 -0.330169,0.09013 -0.58741,0.17285 -1.259321,0.404936 -2.581195,1.034346 -3.969924,1.890278 l -0.475602,0.293132 -0.541171,0.01974 c -0.863079,0.03147 -1.416701,0.15707 -1.994649,0.452522 -0.282167,0.144246 -0.819406,0.459722 -0.942107,0.55322 -0.0079,0.006 0.0024,0.02751 0.02254,0.04779 0.02711,0.02712 0.156538,-0.035 0.489055,-0.234709 0.248701,-0.14937 0.52133,-0.301781 0.605846,-0.33869 0.506391,-0.22116 1.05846,-0.338283 1.774232,-0.37641 l 0.429948,-0.02289 -0.362857,0.255431 -0.362855,0.255434 -0.412493,0.02923 c -0.506154,0.03587 -0.878459,0.103725 -1.291453,0.235374 -0.324731,0.10351 -0.927243,0.381024 -0.927243,0.427077 0,0.0714 0.0871,0.05312 0.330875,-0.06945 0.519716,-0.261308 1.1768,-0.435486 1.819013,-0.482179 0.172725,-0.01257 0.306604,-0.01508 0.297508,-0.0056 -0.0091,0.0095 -0.143039,0.113268 -0.297656,0.230669 l -0.28112,0.213458 -0.326022,0.02278 c -0.616839,0.04312 -1.492988,0.270386 -1.492988,0.387271 0,0.06031 0.03911,0.05349 0.381936,-0.06657 0.283239,-0.0992 0.687203,-0.178615 1.089808,-0.214265 l 0.214974,-0.01905 -0.115435,0.0908 c -0.281151,0.22115 -0.978717,0.823304 -1.335743,1.153039 -0.214329,0.197942 -0.431557,0.39407 -0.482733,0.43584 l -0.09304,0.07594 z m 1.274371,-5.678048 c 0,-0.007 -0.04465,-0.01934 -0.09922,-0.02735 -0.05457,-0.008 -0.09922,-0.0024 -0.09922,0.01278 0,0.01503 0.04465,0.02734 0.09922,0.02734 0.05457,0 0.09922,-0.0057 0.09922,-0.01278 z m 0.156466,-0.04321 c -0.03218,-0.0084 -0.07683,-0.0078 -0.09922,0.0013 -0.02238,0.009 0.0039,0.01593 0.05851,0.01524 0.05457,-7.94e-4 0.07289,-0.0081 0.04071,-0.01648 z m 0.165307,-0.03014 c -0.01098,-0.01098 -0.03952,-0.01217 -0.06339,-0.0026 -0.02638,0.01056 -0.01855,0.01839 0.01998,0.01998 0.03487,0.0013 0.0544,-0.0064 0.04341,-0.01738 z m 0.132292,-0.03307 c -0.01098,-0.01098 -0.03952,-0.01217 -0.06339,-0.0026 -0.02638,0.01056 -0.01855,0.01839 0.01998,0.01998 0.03487,0.0013 0.0544,-0.0064 0.04341,-0.01738 z m 0.22393,-0.0615 c 0.12773,-0.05849 0.06832,-0.05935 -0.08268,-0.0013 -0.06366,0.02453 -0.09343,0.04504 -0.06614,0.0456 0.02729,5.29e-4 0.09426,-0.01942 0.148828,-0.04441 z m 0.351493,-0.154945 c 0.107466,-0.05728 0.189371,-0.110162 0.182012,-0.117518 -0.0074,-0.0074 -0.108082,0.03934 -0.223832,0.103762 -0.260646,0.145076 -0.225962,0.156482 0.04182,0.01376 z M 53.5814,53.067304 c -0.01056,-0.02638 -0.01839,-0.01855 -0.01998,0.01998 -0.0013,0.03486 0.0064,0.0544 0.01738,0.04341 0.01098,-0.01098 0.01217,-0.03952 0.0026,-0.06339 z m 1.399542,-0.03446 c 0,-0.01937 -0.02101,-0.01614 -0.04961,0.0076 -0.02728,0.02265 -0.04961,0.04633 -0.04961,0.05262 0,0.0063 0.02233,0.0029 0.04961,-0.0076 0.02729,-0.01048 0.04961,-0.03415 0.04961,-0.05262 z m 0.165365,-0.13266 c 0,-0.03988 -0.01841,-0.03006 -0.08582,0.04572 -0.06278,0.07058 -0.06274,0.07067 0.0114,0.02511 0.04093,-0.02514 0.07441,-0.05701 0.07441,-0.07083 z m -0.148828,0.04103 c 0.01125,-0.01818 0.0056,-0.03307 -0.01262,-0.03307 -0.0182,0 -0.04227,0.0149 -0.05351,0.03307 -0.01125,0.01818 -0.0056,0.03307 0.01265,0.03307 0.01818,0 0.04227,-0.0149 0.05351,-0.03307 z m 0.380338,-0.260421 c 0,-0.0091 -0.04465,0.02625 -0.09922,0.07852 -0.05457,0.05228 -0.09922,0.1025 -0.09922,0.111596 0,0.0091 0.04465,-0.02625 0.09922,-0.07852 0.05457,-0.05228 0.09922,-0.102497 0.09922,-0.111593 z m -0.148645,0.06178 c 0.08842,-0.0977 0.04108,-0.11307 -0.04991,-0.01619 -0.04266,0.0454 -0.06238,0.08255 -0.04384,0.08255 0.01855,0 0.06073,-0.02985 0.09376,-0.06635 z m 0.261361,-0.1817 c 0.02979,-0.04547 0.04899,-0.08268 0.04264,-0.08268 -0.0063,0 -0.04649,0.03721 -0.08921,0.08268 -0.04272,0.04548 -0.06191,0.08268 -0.04264,0.08268 0.01926,0 0.05941,-0.03721 0.08921,-0.08268 z m 0.184941,-0.248047 c 0,-0.01818 -0.0066,-0.03307 -0.01458,-0.03307 -0.008,0 -0.02379,0.0149 -0.03502,0.03307 -0.01125,0.01818 -0.0047,0.03307 0.01458,0.03307 0.01926,0 0.03503,-0.0149 0.03503,-0.03307 z m -1.719792,-0.06615 c 0,-0.01818 -0.0066,-0.03307 -0.01458,-0.03307 -0.008,0 -0.02379,0.0149 -0.03503,0.03307 -0.01125,0.01818 -0.0047,0.03307 0.01458,0.03307 0.01926,0 0.03503,-0.0149 0.03503,-0.03307 z m 1.785938,-0.03307 c 0,-0.01818 -0.0066,-0.03307 -0.01458,-0.03307 -0.008,0 -0.02379,0.0149 -0.03503,0.03307 -0.01124,0.01818 -0.0047,0.03307 0.01458,0.03307 0.01926,0 0.03503,-0.0149 0.03503,-0.03307 z m -1.632749,-0.253703 c 0.0649,-0.05509 0.07279,-0.06992 0.02498,-0.04696 -0.07341,0.03525 -0.278238,0.252952 -0.276196,0.29355 5.29e-4,0.01302 0.0361,-0.01902 0.07877,-0.0712 0.04267,-0.05217 0.120272,-0.131095 0.172445,-0.175381 z m 0.79697,-0.295445 c -0.01098,-0.01098 -0.03952,-0.01217 -0.06339,-0.0026 -0.02638,0.01056 -0.01855,0.01839 0.01998,0.01998 0.03487,0.0013 0.0544,-0.0064 0.04341,-0.01738 z m 0.264583,-0.06615 c -0.01098,-0.01098 -0.03952,-0.01217 -0.06339,-0.0026 -0.02638,0.01056 -0.01855,0.01839 0.01998,0.01998 0.03487,0.0013 0.0544,-0.0064 0.04341,-0.01738 z m 0.165364,-0.03307 c -0.01098,-0.01098 -0.03952,-0.01217 -0.06339,-0.0026 -0.02638,0.01056 -0.01855,0.01839 0.01998,0.01998 0.03487,0.0013 0.0544,-0.0064 0.04341,-0.01738 z m 0.149516,-0.03499 c -0.02273,-0.0092 -0.05994,-0.0092 -0.08268,0 -0.02273,0.0092 -0.0041,0.01669 0.04134,0.01669 0.04548,0 0.06408,-0.0075 0.04134,-0.01669 z m 0.198438,-0.03307 c -0.02273,-0.0092 -0.05994,-0.0092 -0.08268,0 -0.02273,0.0092 -0.0041,0.01669 0.04134,0.01669 0.04548,0 0.06408,-0.0075 0.04134,-0.01669 z m 0.355534,-0.02032 c 0,-0.03013 -0.04026,-0.03764 -0.14056,-0.02622 l -0.14056,0.01598 0.132292,0.02154 c 0.07276,0.01185 0.136011,0.02365 0.14056,0.02622 0.0046,0.0026 0.0083,-0.01431 0.0083,-0.03752 z"
         style="opacity:0;fill:#000000;fill-opacity:1;stroke:#000000;stroke-width:0.00661458;stroke-miterlimit:4;stroke-dasharray:none;stroke-opacity:1" />
      <path
         inkscape:connector-curvature="0"
         id="path4647"
         d="m 50.970439,61.371156 c -0.770734,-0.75511 -1.868046,-1.777817 -2.594856,-2.41844 -0.845905,-0.745595 -0.723329,-0.671734 -1.072864,-0.646469 -1.185376,0.08569 -2.299285,0.380269 -3.257312,0.861422 -0.320453,0.160941 -0.449019,0.187428 -0.180036,0.03709 0.863674,-0.482717 2.225355,-0.86577 3.336219,-0.938507 l 0.363201,-0.02379 -0.313515,-0.256315 -0.313518,-0.256315 h -0.285959 c -0.579292,0 -1.518322,0.134321 -2.33612,0.334161 -0.372483,0.09102 -1.28174,0.351115 -1.437773,0.411279 -0.03183,0.01228 -0.05788,0.0083 -0.05788,-0.0088 0,-0.03547 0.847598,-0.293886 1.438672,-0.438613 0.763825,-0.187026 1.308745,-0.271753 2.298567,-0.357396 l 0.28112,-0.02432 -0.314193,-0.23419 c -0.44855,-0.334338 -0.411593,-0.321789 -0.873349,-0.296556 -0.478362,0.02614 -1.313641,0.106384 -1.714606,0.164711 -0.159163,0.02315 -0.289388,0.03128 -0.289388,0.01807 0,-0.0132 0.04837,-0.03281 0.107487,-0.04353 0.342741,-0.06217 1.544621,-0.176265 2.058789,-0.195437 l 0.198437,-0.0074 -0.198437,-0.12948 c -0.915781,-0.597548 -2.763319,-1.510755 -4.464844,-2.2069 -0.380492,-0.15567 -0.626634,-0.273944 -0.623946,-0.29981 0.0024,-0.02349 0.453411,-1.244084 1.002155,-2.712421 l 0.997714,-2.669706 -0.260699,-0.323393 c -1.097621,-1.361585 -1.757299,-2.581486 -2.073092,-3.833637 -0.169082,-0.670436 -0.196869,-0.948447 -0.19788,-1.979862 -0.0011,-1.06722 0.0044,-1.129823 0.296069,-3.423046 0.09833,-0.773079 0.203917,-1.625159 0.234627,-1.893507 0.05021,-0.438772 0.06118,-0.483743 0.108932,-0.446543 0.0916,0.07136 1.991553,1.69667 4.032528,3.449614 2.452251,2.106181 2.256578,1.946315 2.569009,2.098908 0.610684,0.298265 1.371721,0.36045 2.84427,0.232402 1.122186,-0.09758 1.749746,-0.09395 2.794662,0.01614 1.414478,0.149029 2.009047,0.09137 2.728515,-0.264629 0.405207,-0.200496 0.156187,0.0011 4.313291,-3.490039 1.115525,-0.936789 2.078045,-1.744887 2.138931,-1.795769 l 0.110707,-0.09251 0.01738,0.07598 c 0.02701,0.118171 0.403593,2.886509 0.478221,3.515561 0.112451,0.947859 0.143979,1.539237 0.125103,2.346746 -0.01849,0.790863 -0.05906,1.135859 -0.202409,1.721223 -0.29405,1.200716 -0.999498,2.45695 -2.138431,3.808042 l -0.292544,0.347038 0.06792,0.171418 c 0.164645,0.415497 0.452266,1.187646 0.8831,2.370767 0.497959,1.367454 0.770562,2.085571 1.010021,2.660685 0.08292,0.199165 0.147531,0.364521 0.143573,0.367464 -0.004,0.0029 -0.118819,0.03172 -0.255246,0.06396 -1.180042,0.278837 -2.952573,1.076381 -4.514453,2.03126 l -0.463021,0.283075 0.554773,0.03942 c 0.838409,0.05957 1.677649,0.162457 1.677649,0.205666 0,0.01199 -0.256728,-0.01029 -0.570508,-0.0495 -0.31378,-0.0392 -0.830167,-0.08871 -1.147527,-0.110024 l -0.577019,-0.03876 -0.406839,0.27474 -0.406842,0.274744 0.190111,0.02278 c 0.104558,0.01251 0.369919,0.03829 0.58969,0.05726 0.458875,0.0396 1.137335,0.158832 1.730925,0.304181 0.559859,0.137091 1.400929,0.389662 1.441368,0.432837 0.04038,0.04312 0.02442,0.03922 -0.496093,-0.121068 -1.190155,-0.366503 -2.51269,-0.612008 -3.302112,-0.612976 l -0.259402,-2.65e-4 -0.31014,0.233104 c -0.170577,0.128209 -0.317513,0.245041 -0.326527,0.259627 -0.009,0.01458 0.135657,0.03609 0.321492,0.0478 0.896075,0.05642 1.879151,0.294883 2.768746,0.671599 0.370157,0.15675 0.892683,0.440452 0.89286,0.484778 6.6e-5,0.01468 -0.09291,-0.02694 -0.206597,-0.09252 -0.937919,-0.541033 -2.19578,-0.912926 -3.417848,-1.01051 l -0.44826,-0.03579 -0.1216,0.09241 c -0.927248,0.704681 -2.589868,2.272445 -3.62862,3.4216 l -0.166653,0.184364 -0.627872,-0.615143 z m 1.228886,-0.106936 c 0.325705,-0.348044 0.696026,-0.729004 0.822936,-0.846582 0.222081,-0.205746 0.228294,-0.215652 0.165365,-0.26375 -0.09788,-0.07481 -0.455094,-0.241517 -0.511868,-0.238879 -0.02728,0.0013 0.0033,0.0218 0.06795,0.04561 0.171562,0.06321 0.387237,0.177189 0.412443,0.217977 0.01206,0.01953 -0.227758,0.290256 -0.535188,0.604152 -0.306382,0.312827 -0.659966,0.684001 -0.785741,0.824833 l -0.228682,0.256061 -0.201266,-0.1895 c -0.110696,-0.104227 -0.497372,-0.475178 -0.859277,-0.824341 l -0.658011,-0.634838 0.158444,-0.100484 c 0.08714,-0.05527 0.234423,-0.125116 0.327284,-0.155223 0.09286,-0.03011 0.183314,-0.06813 0.201009,-0.0845 0.03671,-0.03396 -0.299932,0.0776 -0.417547,0.138367 -0.04271,0.02207 -0.127929,0.07767 -0.189381,0.123573 l -0.111736,0.08346 0.855877,0.836697 c 0.470731,0.460182 0.864722,0.837478 0.875535,0.838436 0.01082,0.0011 0.286147,-0.283025 0.611849,-0.631068 z m 2.413193,-2.295496 c 0.25576,-0.217538 0.538533,-0.458118 0.628386,-0.534623 l 0.163369,-0.139099 -0.214974,0.01675 c -0.541842,0.04225 -1.110824,0.168791 -1.463476,0.32548 -0.03183,0.01413 -0.05788,0.01289 -0.05788,-0.0028 0,-0.0321 0.287912,-0.14701 0.56224,-0.224403 0.247221,-0.06975 0.799653,-0.150347 1.041797,-0.152003 0.196942,-0.0013 0.201057,-0.0034 0.545703,-0.269434 l 0.347265,-0.268075 -0.333581,0.02101 c -0.681963,0.04294 -1.277371,0.190553 -1.82953,0.453589 -0.189257,0.09015 -0.350798,0.157223 -0.358981,0.14904 -0.02553,-0.02553 0.558223,-0.303925 0.822594,-0.392298 0.392359,-0.131159 0.836232,-0.216405 1.333619,-0.256122 l 0.456386,-0.03644 0.40123,-0.283112 0.401232,-0.283115 -0.446786,0.02117 c -0.773353,0.03664 -1.361612,0.156376 -1.8533,0.37724 -0.119071,0.05349 -0.406477,0.212421 -0.638678,0.353192 -0.232198,0.140772 -0.429561,0.248568 -0.438584,0.239546 -0.02879,-0.02879 0.803283,-0.521187 1.103596,-0.653081 0.531339,-0.233355 1.224756,-0.362757 1.943901,-0.362757 h 0.377831 l 0.472104,-0.2925 c 1.60633,-0.99523 3.082438,-1.663565 4.639291,-2.100524 l 0.165365,-0.04641 -0.347266,-0.337327 c -1.813988,-1.762086 -3.599476,-2.890542 -5.060156,-3.198096 -0.371546,-0.07823 -1.024678,-0.07856 -1.322917,-7.94e-4 -1.464193,0.382424 -2.212811,2.120972 -2.380803,5.529041 -0.03756,0.761944 -0.04306,2.157404 -0.01177,2.982441 l 0.02156,0.568119 0.433099,-0.404104 c 0.238207,-0.222258 0.642358,-0.582091 0.898118,-0.799629 z m -4.792911,0.522248 c 0.01564,-0.359254 0.0283,-1.315474 0.02816,-2.124935 -2.64e-4,-1.554501 -0.03342,-2.07617 -0.185975,-2.926953 -0.29658,-1.653953 -0.884542,-2.702616 -1.777386,-3.170063 -0.375711,-0.196702 -0.557345,-0.235911 -1.079093,-0.232942 -0.405331,0.0024 -0.510929,0.01524 -0.847529,0.103746 -1.288431,0.338801 -2.819979,1.259107 -4.522316,2.717448 -0.633712,0.542882 -0.650471,0.558107 -0.632889,0.575013 0.0091,0.0088 0.256299,0.113417 0.549344,0.232598 1.684557,0.685115 3.295062,1.476762 4.410966,2.168216 l 0.379712,0.23528 h 0.321394 c 0.419032,0 1.003531,0.07795 1.371058,0.182841 0.320429,0.09145 0.808702,0.31333 1.12,0.508944 0.10914,0.06858 0.263096,0.165304 0.342122,0.214937 0.07903,0.04963 0.136522,0.0974 0.127767,0.106162 -0.0088,0.0088 -0.177593,-0.08418 -0.375195,-0.206521 -0.854358,-0.528955 -1.400482,-0.696677 -2.475944,-0.760404 l -0.396875,-0.02352 0.378029,0.284173 0.378028,0.284171 0.250357,0.01884 c 0.479642,0.03608 1.095491,0.148923 1.437733,0.263443 0.359068,0.120152 0.791532,0.32135 0.832215,0.387178 0.02765,0.04474 0.04249,0.05055 -0.316336,-0.124016 -0.350158,-0.170352 -0.82319,-0.322656 -1.209363,-0.389387 -0.332388,-0.05744 -0.874231,-0.104883 -0.874231,-0.07655 0,0.01021 0.135305,0.13148 0.30068,0.269462 0.298969,0.249452 0.301776,0.250878 0.4937,0.250878 0.389027,0 1.002993,0.117026 1.406988,0.268179 0.307954,0.115221 0.196953,0.12124 -0.14282,0.0078 -0.336663,-0.112456 -0.743926,-0.191032 -1.165579,-0.22488 l -0.248047,-0.01992 0.181565,0.158067 c 0.374862,0.32635 1.349515,1.203209 1.604372,1.443389 0.145521,0.137142 0.274119,0.250074 0.285777,0.25096 0.01164,7.94e-4 0.03398,-0.292325 0.04961,-0.651581 z m 0.175202,0.567936 c 0.07086,-0.04689 0.215643,-0.120952 0.321752,-0.164582 0.106106,-0.04363 0.170177,-0.07968 0.14238,-0.08011 -0.07243,-0.0011 -0.515077,0.215911 -0.548431,0.268902 -0.02013,0.03197 -0.03409,0.01656 -0.0496,-0.05471 l -0.02159,-0.09922 -0.0039,0.107487 c -0.0021,0.05912 0.0038,0.107487 0.01333,0.107487 0.0095,0 0.07522,-0.03836 0.146077,-0.08525 z m 3.202183,-1.675879 -0.0079,-1.694987 -0.0089,1.546159 -0.0089,1.546159 H 52.85081 c -0.185333,0 -0.307229,0.01222 -0.28906,0.02898 0.01728,0.01593 0.128159,0.06108 0.246393,0.100307 0.118237,0.03923 0.243864,0.09316 0.279173,0.119848 0.03531,0.02669 0.07624,0.04852 0.09095,0.04852 0.01471,0 0.02318,-0.762744 0.01881,-1.694987 z m -0.744476,1.474647 c -0.02273,-0.0092 -0.05994,-0.0092 -0.08268,0 -0.02273,0.0092 -0.0041,0.01669 0.04134,0.01669 0.04548,0 0.06408,-0.0075 0.04134,-0.01669 z m -2.563514,-0.565142 c -0.0066,-0.104592 -0.01193,-0.01902 -0.01193,0.190169 0,0.209188 0.0054,0.294765 0.01193,0.19017 0.0066,-0.104593 0.0066,-0.275744 0,-0.380339 z m 1.328791,0.499771 c 0.02545,-0.02207 -0.31037,-0.0044 -0.410655,0.02162 -0.05813,0.01508 0.0035,0.01841 0.148828,0.008 0.136427,-0.0097 0.254249,-0.02307 0.261827,-0.02965 z m 1.052822,0.0314 c -0.03183,-0.0083 -0.08392,-0.0083 -0.115756,0 -0.03183,0.0083 -0.0058,0.01513 0.05788,0.01513 0.06367,0 0.08971,-0.0068 0.05788,-0.01513 z m -0.28112,-0.0342 c -0.05912,-0.0073 -0.155856,-0.0073 -0.214974,0 -0.05912,0.0073 -0.01074,0.01333 0.107487,0.01333 0.118237,0 0.166605,-0.006 0.107487,-0.01333 z m 0.438216,-0.0092 c -0.01124,-0.01818 -0.06793,-0.03111 -0.125976,-0.02872 l -0.105534,0.0043 0.115755,0.02437 c 0.06367,0.01339 0.120353,0.02633 0.125976,0.02872 0.0056,0.0024 0.0011,-0.01053 -0.01021,-0.02872 z m -1.661914,-0.02191 c -0.02273,-0.0092 -0.05994,-0.0092 -0.08268,0 -0.02273,0.0092 -0.0041,0.01669 0.04134,0.01669 0.04548,0 0.06408,-0.0075 0.04134,-0.01669 z m 0.777213,-0.0019 c -0.05002,-0.0076 -0.131878,-0.0076 -0.181901,0 -0.05002,0.0076 -0.0091,0.01378 0.09095,0.01378 0.100047,0 0.140973,-0.0062 0.09095,-0.01378 z m -0.562239,-0.03218 c -0.03183,-0.0083 -0.08392,-0.0083 -0.115755,0 -0.03183,0.0083 -0.0058,0.01513 0.05788,0.01513 0.06367,0 0.08971,-0.0068 0.05788,-0.01513 z m 1.141015,-5.29e-4 c -0.04093,-0.0079 -0.107899,-0.0079 -0.148828,0 -0.04093,0.0079 -0.0074,0.01434 0.07441,0.01434 0.08186,0 0.115343,-0.0065 0.07441,-0.01434 z m -0.46302,-0.03422 c -0.113689,-0.0065 -0.299723,-0.0065 -0.413412,0 -0.113689,0.0065 -0.02066,0.01175 0.206706,0.01175 0.227378,0 0.320394,-0.0053 0.206706,-0.01175 z M 49.922191,58.31682 c -0.0063,-0.131877 -0.0114,-0.02397 -0.0114,0.239778 0,0.263758 0.0051,0.371658 0.0114,0.239779 0.0063,-0.131876 0.0063,-0.347679 0,-0.479557 z m 0.03316,-1.256771 c -0.006,-0.168257 -0.0109,-0.03059 -0.0109,0.305924 0,0.336518 0.0049,0.474184 0.0109,0.305925 0.006,-0.168257 0.006,-0.44359 0,-0.611849 z m -0.03333,-0.959115 c -0.0067,-0.0955 -0.01214,-0.01736 -0.01214,0.173633 0,0.190997 0.0055,0.269131 0.01214,0.173633 0.0067,-0.0955 0.0067,-0.251767 0,-0.347266 z m 3.307125,0.09922 c -0.007,-0.07731 -0.01265,-0.01405 -0.01265,0.14056 0,0.154617 0.0057,0.217868 0.01265,0.14056 0.007,-0.07731 0.007,-0.203812 0,-0.28112 z m 0.03282,-0.462428 c -0.0074,-0.05944 -0.01355,-0.01879 -0.01373,0.09036 -1.98e-4,0.10914 0.0058,0.157776 0.01339,0.108079 0.0075,-0.0497 0.0077,-0.138993 2.65e-4,-0.198437 z m -3.373437,-0.132292 c -0.0074,-0.05944 -0.01355,-0.01879 -0.01373,0.09036 -1.99e-4,0.109141 0.0058,0.157776 0.01339,0.10808 0.0075,-0.0497 0.0077,-0.138994 2.64e-4,-0.198438 z m 3.406274,-0.215112 c -0.0076,-0.05027 -0.01402,-0.01699 -0.01429,0.07396 -2.3e-4,0.09095 0.006,0.132083 0.01381,0.09141 0.0079,-0.04068 0.008,-0.115091 5.29e-4,-0.165365 z m -3.439974,-0.149283 c -0.0079,-0.04093 -0.01434,-0.0074 -0.01434,0.07441 0,0.08186 0.0065,0.115343 0.01434,0.07441 0.0079,-0.04093 0.0079,-0.107899 0,-0.148828 z m 3.472039,-0.149211 c -0.0083,-0.03162 -0.01474,0.0021 -0.01439,0.0748 2.65e-4,0.07276 0.0071,0.09863 0.01505,0.05749 0.0079,-0.04114 0.0076,-0.100671 -7.94e-4,-0.132291 z m -3.505729,-0.132292 c -0.0083,-0.03162 -0.01474,0.0021 -0.01439,0.0748 2.64e-4,0.07276 0.0071,0.09863 0.01506,0.05749 0.0079,-0.04114 0.0076,-0.100672 -7.94e-4,-0.132292 z m 3.538876,-0.09884 c -0.0083,-0.03183 -0.01513,-0.0058 -0.01513,0.05788 0,0.06367 0.0068,0.08971 0.01513,0.05788 0.0083,-0.03183 0.0083,-0.08392 0,-0.115755 z M 49.78814,54.728404 c -0.0083,-0.03183 -0.01513,-0.0058 -0.01513,0.05788 0,0.06367 0.0068,0.08971 0.01513,0.05788 0.0083,-0.03183 0.0083,-0.08392 0,-0.115755 z m 3.604948,-0.09922 c -0.0083,-0.03183 -0.01513,-0.0058 -0.01513,0.05788 0,0.06367 0.0068,0.08971 0.01513,0.05788 0.0083,-0.03183 0.0083,-0.08392 0,-0.115756 z m -3.644283,-0.173632 c -0.01283,-0.09328 -0.02998,-0.162941 -0.03812,-0.154806 -0.0081,0.0082 -0.0046,0.09144 0.0078,0.185124 0.01244,0.09368 0.02958,0.163343 0.03812,0.154805 0.0085,-0.0085 0.005,-0.09184 -0.0078,-0.185123 z m 3.677475,-0.02418 c -0.0084,-0.03218 -0.01579,-0.01387 -0.01648,0.04071 -7.94e-4,0.05457 0.0062,0.0809 0.01524,0.05851 0.009,-0.02238 0.0096,-0.06704 0.0013,-0.09922 z m 8.863095,-0.05024 c -0.0245,-0.05912 -0.09448,-0.229952 -0.155491,-0.379633 -0.06101,-0.14968 -0.116541,-0.26653 -0.123407,-0.259664 -0.0069,0.0069 0.04058,0.140665 0.105437,0.297336 0.06485,0.156673 0.117917,0.294177 0.117917,0.305564 0,0.01138 -0.122783,-0.09669 -0.272852,-0.240172 -1.166498,-1.115328 -2.400641,-2.024555 -3.447851,-2.540127 -0.444249,-0.218716 -0.971836,-0.42671 -1.174089,-0.46287 -0.06366,-0.01138 0.03307,0.03006 0.214974,0.0921 1.356617,0.46268 2.823501,1.448186 4.431771,2.97743 0.181901,0.172961 0.33465,0.315161 0.339442,0.316 0.0048,7.94e-4 -0.01135,-0.04685 -0.03585,-0.105965 z M 53.45834,54.24884 c -0.0092,-0.02273 -0.01669,-0.0041 -0.01669,0.04134 0,0.04548 0.0075,0.06408 0.01669,0.04134 0.0092,-0.02273 0.0092,-0.05994 0,-0.08268 z M 41.282138,53.921797 c 1.223889,-1.054201 2.285347,-1.792399 3.343632,-2.325357 0.234675,-0.118184 0.411798,-0.215051 0.393608,-0.21526 -0.06177,-7.93e-4 -0.823251,0.396685 -1.23934,0.646774 -0.713084,0.428601 -1.733762,1.187532 -2.544824,1.892221 -0.171328,0.148857 -0.317844,0.264313 -0.325588,0.256569 -0.0078,-0.0078 0.04,-0.158441 0.106093,-0.334881 0.0661,-0.17644 0.113823,-0.327146 0.106066,-0.334907 -0.0078,-0.0078 -0.03652,0.04995 -0.0639,0.128247 -0.02739,0.07829 -0.09675,0.268089 -0.154136,0.421767 -0.08357,0.223803 -0.0925,0.26934 -0.04487,0.228801 0.0327,-0.02784 0.223176,-0.191625 0.423267,-0.363974 z m 8.405889,0.227827 c -0.0092,-0.02273 -0.01669,-0.0041 -0.01669,0.04134 0,0.04548 0.0075,0.06408 0.01669,0.04134 0.0092,-0.02273 0.0092,-0.05994 0,-0.08268 z m 3.803386,-0.06615 c -0.0092,-0.02273 -0.0167,-0.0041 -0.0167,0.04134 0,0.04548 0.0075,0.06408 0.0167,0.04134 0.0092,-0.02273 0.0092,-0.05994 0,-0.08268 z M 49.64775,53.944753 c -0.01246,-0.06637 -0.02925,-0.114062 -0.03734,-0.105979 -0.0081,0.0081 -0.0045,0.069 0.0079,0.135377 0.01246,0.06637 0.02925,0.114062 0.03734,0.105976 0.0081,-0.0081 0.0045,-0.069 -0.0079,-0.135374 z m 4.008667,-0.529939 c -0.01135,-0.03707 -0.155329,0.521065 -0.150841,0.584782 0.0016,0.02339 0.03847,-0.09141 0.08182,-0.255119 0.04335,-0.163711 0.07441,-0.312058 0.06902,-0.329663 z m -4.108116,0.149831 c -0.03122,-0.111271 -0.06272,-0.196353 -0.07,-0.189074 -0.0073,0.0073 0.01212,0.104452 0.04313,0.215945 0.031,0.11149 0.06249,0.196575 0.07,0.189074 0.0075,-0.0075 -0.01191,-0.104677 -0.04312,-0.215945 z M 61.783843,53.09697 c -0.197308,-0.521179 -0.294042,-0.744971 -0.22761,-0.526582 0.05524,0.181618 0.422738,1.125781 0.433856,1.114663 0.0065,-0.0065 -0.08627,-0.271176 -0.206246,-0.588081 z m -20.570272,0.201023 c 0.01537,-0.05746 0.01275,-0.06755 -0.0085,-0.03307 -0.01685,0.02729 -0.0406,0.08682 -0.05277,0.132291 -0.01537,0.05747 -0.01275,0.06755 0.0085,0.03307 0.01685,-0.02728 0.04061,-0.08682 0.05277,-0.132291 z m 12.573744,-0.288529 c -0.01543,-0.01543 -0.120357,0.285817 -0.116954,0.335762 0.0013,0.0195 0.03105,-0.04521 0.06604,-0.143801 0.03499,-0.09859 0.0579,-0.18497 0.05091,-0.191961 z m -4.352859,0.198824 c -0.03604,-0.0562 -0.03697,-0.05613 -0.01886,0.0016 0.01048,0.03332 0.02021,0.07797 0.02164,0.09922 0.0019,0.02788 0.0071,0.02748 0.01887,-0.0016 0.0089,-0.02204 -7.94e-4,-0.0667 -0.02164,-0.09922 z m -7.773472,-1.096827 c 0.22057,-0.588931 0.39556,-1.076257 0.388867,-1.082951 -0.0067,-0.0067 -0.188421,0.460272 -0.403839,1.037707 -0.437505,1.172744 -0.431321,1.155454 -0.405043,1.132557 0.01045,-0.0091 0.199446,-0.498385 0.420015,-1.087313 z m 7.676346,0.82764 c -0.378193,-0.959482 -1.003993,-1.63476 -1.754801,-1.893543 -0.178441,-0.0615 -0.296474,-0.07532 -0.694532,-0.08128 l -0.479557,-0.0072 0.479557,0.02405 c 0.658776,0.03303 0.960102,0.141306 1.431195,0.514244 0.360627,0.285488 0.793449,0.926433 1.000019,1.480886 0.03234,0.08681 0.06464,0.151995 0.07178,0.144859 0.0071,-0.0071 -0.01701,-0.08905 -0.05366,-0.182028 z m 4.614651,-0.28458 c 0.167132,-0.391197 0.450318,-0.814097 0.711557,-1.062604 0.24874,-0.236617 0.42627,-0.353825 0.703696,-0.464593 0.111324,-0.04445 0.158237,-0.07171 0.104254,-0.06058 -0.281609,0.05806 -0.732377,0.356463 -0.984009,0.651407 -0.255029,0.298926 -0.571167,0.856837 -0.670319,1.182963 -0.04518,0.148584 0.0059,0.05517 0.134821,-0.246597 z m 7.466838,-0.542428 c -0.06642,-0.185203 -0.126384,-0.331126 -0.133239,-0.324268 -0.0069,0.0069 0.04194,0.163938 0.108434,0.349073 0.0665,0.185134 0.126455,0.331054 0.133242,0.324268 0.0068,-0.0068 -0.04201,-0.163867 -0.108437,-0.349073 z m -0.197528,-0.546611 c -0.02928,-0.08593 -0.05896,-0.150505 -0.06595,-0.14351 -0.007,0.007 0.01124,0.08302 0.04051,0.16895 0.02928,0.08593 0.05896,0.150506 0.06595,0.14351 0.007,-0.007 -0.01124,-0.08302 -0.04051,-0.16895 z M 45.250888,51.311243 c 0.07276,-0.03499 0.09509,-0.05436 0.04961,-0.04304 -0.09364,0.02331 -0.265563,0.109509 -0.214974,0.107784 0.0182,-5.29e-4 0.0926,-0.02976 0.165364,-0.06475 z M 61.089,51.201684 c -0.02928,-0.08593 -0.05896,-0.150505 -0.06595,-0.14351 -0.007,0.007 0.01125,0.08302 0.04051,0.16895 0.02928,0.08593 0.05896,0.150506 0.06595,0.14351 0.007,-0.007 -0.01124,-0.08302 -0.04051,-0.16895 z m -15.523919,-0.0038 c 0.06367,-0.02453 0.09343,-0.04504 0.06615,-0.0456 -0.02728,-5.29e-4 -0.09426,0.01942 -0.148828,0.04441 -0.127731,0.05849 -0.06832,0.05934 0.08268,0.0013 z m 0.28112,-0.08268 c 0.04169,-0.01791 0.04781,-0.02842 0.01654,-0.02842 -0.02728,0 -0.07937,0.01278 -0.115755,0.02842 -0.04169,0.01791 -0.0478,0.02842 -0.01654,0.02842 0.02729,0 0.07938,-0.01278 0.115755,-0.02842 z m 0.172945,-0.05305 c -0.01098,-0.01098 -0.03952,-0.01217 -0.06339,-0.0026 -0.02638,0.01056 -0.01855,0.01839 0.01998,0.01998 0.03486,0.0013 0.0544,-0.0064 0.04341,-0.01738 z m 11.178645,0 c -0.01098,-0.01098 -0.03951,-0.01217 -0.06339,-0.0026 -0.02638,0.01056 -0.01855,0.01839 0.01998,0.01998 0.03486,0.0013 0.0544,-0.0064 0.04341,-0.01738 z m -11.029129,-0.03499 c -0.02273,-0.0092 -0.05994,-0.0092 -0.08268,0 -0.02273,0.0092 -0.0041,0.01669 0.04134,0.01669 0.04548,0 0.06408,-0.0075 0.04134,-0.01669 z m 9.507775,0.0019 c -0.01098,-0.01098 -0.03952,-0.01217 -0.06339,-0.0026 -0.02638,0.01056 -0.01855,0.01839 0.01998,0.01998 0.03486,0.0013 0.0544,-0.0064 0.04341,-0.01738 z m 1.373214,-0.0019 c -0.02273,-0.0092 -0.05994,-0.0092 -0.08268,0 -0.02273,0.0092 -0.0041,0.01669 0.04134,0.01669 0.04548,0 0.06408,-0.0075 0.04134,-0.01669 z m -10.699718,-0.03409 c -0.03218,-0.0084 -0.07683,-0.0078 -0.09922,0.0013 -0.02238,0.009 0.0039,0.01593 0.05851,0.01524 0.05457,-7.94e-4 0.07289,-0.0081 0.04071,-0.01648 z m 9.491927,0 c -0.03218,-0.0084 -0.07683,-0.0078 -0.09922,0.0013 -0.02238,0.009 0.0039,0.01593 0.05851,0.01524 0.05457,-7.94e-4 0.07289,-0.0081 0.04071,-0.01648 z m 1.02589,1.32e-4 c -0.03183,-0.0083 -0.08392,-0.0083 -0.115755,0 -0.03183,0.0083 -0.0058,0.01513 0.05788,0.01513 0.06367,0 0.08971,-0.0068 0.05788,-0.01513 z m 3.81096,-0.892318 c -0.185422,-0.488066 -0.344604,-0.920298 -0.353734,-0.960538 -0.01249,-0.05504 0.03219,-0.128749 0.180475,-0.297656 0.651055,-0.741622 1.323684,-1.714937 1.686472,-2.440379 0.155623,-0.311187 0.384517,-0.875578 0.363588,-0.896509 -0.008,-0.008 -0.04848,0.07879 -0.0899,0.192915 -0.31649,0.871863 -0.960946,1.902643 -1.861976,2.97815 l -0.343644,0.410184 0.159933,0.410493 c 0.08796,0.225772 0.251976,0.659593 0.364471,0.964044 0.112496,0.304453 0.210593,0.547494 0.217996,0.540091 0.0074,-0.0074 -0.138253,-0.412768 -0.323676,-0.900814 z m -18.539097,0.716667 c 0.01537,-0.05746 0.01275,-0.06755 -0.0085,-0.03307 -0.01685,0.02729 -0.0406,0.08682 -0.05277,0.132291 -0.01537,0.05747 -0.01275,0.06755 0.0085,0.03307 0.01685,-0.02728 0.0406,-0.08682 0.05277,-0.132291 z m 14.365631,0.140964 c -0.10388,-0.0065 -0.282474,-0.0066 -0.396875,-1.32e-4 -0.1144,0.0065 -0.02941,0.01183 0.188873,0.01191 0.218281,6.7e-5 0.311883,-0.0052 0.208002,-0.01177 z M 42.499936,49.86406 42.81411,49.026318 42.433417,48.543395 c -0.842664,-1.068946 -1.4946,-2.203167 -1.810464,-3.149799 -0.08194,-0.245565 -0.149456,-0.425158 -0.15004,-0.399094 -0.0026,0.117345 0.290401,0.890733 0.508349,1.341673 0.373885,0.773588 0.81906,1.462934 1.477851,2.288428 l 0.321834,0.40327 -0.289848,0.770819 c -0.3019,0.802857 -0.352632,0.947285 -0.323041,0.919644 0.0097,-0.0091 0.159081,-0.39352 0.331878,-0.854276 z m 0.669898,-2.114018 c -0.01164,-0.05002 -0.07592,-0.269545 -0.142832,-0.487826 -0.153504,-0.500737 -0.167863,-0.881245 -0.0478,-1.266618 l 0.0752,-0.241361 0.119975,0.239821 c 0.10773,0.215336 0.3674,0.524018 0.440817,0.524018 0.01564,0 0.02543,-0.279051 0.02177,-0.620118 -0.0074,-0.691718 0.02061,-0.835286 0.21558,-1.104442 l 0.102743,-0.141835 0.07102,0.263472 c 0.06708,0.248872 0.18578,0.517099 0.290656,0.65682 0.0422,0.05623 0.04929,0.03281 0.06944,-0.229269 0.01233,-0.160539 0.04573,-0.382196 0.07421,-0.49257 0.06358,-0.246464 0.249196,-0.607531 0.373574,-0.726688 l 0.09252,-0.08864 0.09282,0.125426 c 0.189783,0.256442 0.3966,0.373473 0.65999,0.373473 0.100772,0 0.183218,-0.01355 0.183218,-0.03009 0,-0.01656 -0.0689,-0.213749 -0.153103,-0.438216 -0.557171,-1.485218 -1.364875,-2.403356 -2.566483,-2.917381 -0.272867,-0.116729 -0.856159,-0.285403 -0.986951,-0.285403 -0.08115,0 -0.416391,0.687099 -0.590703,1.21068 -0.229016,0.687893 -0.279533,0.998064 -0.279525,1.716273 3e-6,0.522295 0.01206,0.682876 0.07146,0.951129 0.235376,1.063147 0.737349,1.970964 1.590627,2.876651 0.115893,0.12301 0.217964,0.223652 0.226828,0.223652 0.0089,0 0.0066,-0.04093 -0.0051,-0.09095 z m 17.451631,-0.570508 c 1.246235,-1.534806 1.589238,-3.275129 0.997315,-5.060156 -0.109318,-0.329666 -0.532175,-1.25703 -0.57295,-1.256538 -0.05692,7.94e-4 -0.58421,0.138655 -0.766479,0.200551 -0.297434,0.101008 -0.763984,0.339487 -1.048359,0.535874 -0.77851,0.537639 -1.40848,1.443151 -1.825003,2.623249 -0.11317,0.320638 -0.106635,0.343418 0.09842,0.343027 0.232634,-5.3e-4 0.519295,-0.182645 0.669697,-0.425662 l 0.06975,-0.112705 0.1114,0.129241 c 0.250983,0.291177 0.390943,0.685237 0.427799,1.204479 l 0.02156,0.303816 0.111651,-0.176898 c 0.110993,-0.17585 0.27363,-0.626695 0.276199,-0.765649 0.0013,-0.06577 0.01071,-0.06173 0.09967,0.04234 0.05408,0.06328 0.131612,0.197223 0.172289,0.297656 0.06865,0.169497 0.0736,0.229499 0.06889,0.835776 l -0.0051,0.653167 0.09469,-0.06742 c 0.141996,-0.101111 0.287422,-0.289481 0.394348,-0.510794 l 0.09563,-0.197927 0.03815,0.09871 c 0.08555,0.221377 0.13753,0.565576 0.119792,0.793237 -0.0099,0.12733 -0.07832,0.43793 -0.152003,0.690221 -0.07368,0.252291 -0.133966,0.467662 -0.133966,0.478602 0,0.03951 0.439772,-0.413798 0.636593,-0.656193 z m 2.126795,-2.298568 c 0.04444,-0.181901 0.07978,-0.360495 0.07853,-0.396875 -0.0013,-0.03638 -0.03836,0.09013 -0.08246,0.28112 -0.04411,0.190997 -0.1026,0.413171 -0.129982,0.493718 -0.02738,0.08055 -0.04874,0.162404 -0.04745,0.181901 0.0044,0.06736 0.100851,-0.230288 0.181369,-0.559864 z m -22.286888,-0.02275 c -0.01056,-0.02638 -0.01839,-0.01855 -0.01998,0.01998 -0.0013,0.03486 0.0064,0.0544 0.01738,0.04341 0.01098,-0.01098 0.01217,-0.03952 0.0026,-0.06339 z m -0.04097,-0.206936 c -0.01246,-0.06637 -0.02925,-0.114062 -0.03734,-0.105979 -0.0081,0.0081 -0.0045,0.069 0.0079,0.135377 0.01246,0.06637 0.02925,0.114061 0.03734,0.105976 0.0081,-0.0081 0.0045,-0.069 -0.0079,-0.135374 z m -0.05793,-0.274061 c -0.0084,-0.03218 -0.0158,-0.01386 -0.01648,0.04071 -7.93e-4,0.05457 0.0062,0.0809 0.01524,0.05851 0.009,-0.02238 0.0096,-0.06704 0.0013,-0.09922 z m 22.48958,-0.09922 c -0.0084,-0.03218 -0.01579,-0.01386 -0.01648,0.04071 -7.94e-4,0.05457 0.0062,0.0809 0.01524,0.05851 0.009,-0.02238 0.0096,-0.06704 0.0013,-0.09922 z M 40.319716,44.05744 c -0.01241,-0.120997 -0.02969,-0.212842 -0.03843,-0.2041 -0.0087,0.0087 -0.0053,0.114477 0.0076,0.234969 0.01291,0.120491 0.0302,0.212336 0.03844,0.204099 0.0082,-0.0082 0.0048,-0.113969 -0.0076,-0.234968 z m 22.565225,-0.04503 c -0.0083,-0.03162 -0.01474,0.0021 -0.01439,0.0748 2.64e-4,0.07276 0.0071,0.09863 0.01505,0.05749 0.0079,-0.04114 0.0076,-0.100671 -7.94e-4,-0.132291 z m 0.03427,-0.379955 c -0.0073,-0.05912 -0.01334,-0.01074 -0.01334,0.107487 0,0.118237 0.006,0.166605 0.01334,0.107487 0.0073,-0.05912 0.0073,-0.155856 0,-0.214974 z M 40.264212,43.466352 c -0.0073,-0.05871 -0.01318,-0.0026 -0.01302,0.124759 1.45e-4,0.127331 0.0061,0.175369 0.01328,0.106752 0.0072,-0.06862 0.007,-0.172799 -2.65e-4,-0.231511 z m 22.688761,-0.741891 c -0.0062,-0.141806 -0.01135,-0.03459 -0.01138,0.238265 -3.1e-5,0.272852 0.005,0.388874 0.0113,0.257829 0.0063,-0.131049 0.0063,-0.354291 9.8e-5,-0.496094 z m -22.721265,-0.0016 c -0.0066,-0.104592 -0.01193,-0.01902 -0.01193,0.19017 0,0.209187 0.0054,0.294764 0.01193,0.190169 0.0066,-0.104593 0.0066,-0.275744 0,-0.380339 z m 13.973672,0.366705 c -0.02273,-0.0092 -0.05994,-0.0092 -0.08268,0 -0.02273,0.0092 -0.0041,0.01669 0.04134,0.01669 0.04548,0 0.06408,-0.0075 0.04134,-0.01669 z m -5.010547,-0.03548 c -0.0864,-0.0068 -0.22779,-0.0068 -0.314192,0 -0.0864,0.0068 -0.01572,0.01238 0.157096,0.01238 0.172807,0 0.243499,-0.0056 0.157096,-0.01238 z m 4.712018,6.6e-5 c -0.07779,-0.007 -0.196853,-0.0069 -0.264583,2.33e-4 -0.06773,0.0071 -0.0041,0.01283 0.141433,0.0127 0.14552,-1.32e-4 0.200937,-0.0059 0.12315,-0.01291 z m 0.794623,2.65e-4 c -0.05912,-0.0073 -0.155856,-0.0073 -0.214974,0 -0.05912,0.0073 -0.01074,0.01334 0.107487,0.01334 0.118237,0 0.166605,-0.006 0.107487,-0.01334 z m -6.101953,-0.03284 c -0.05002,-0.0076 -0.131879,-0.0076 -0.181901,0 -0.05002,0.0076 -0.0091,0.01378 0.09095,0.01378 0.100047,0 0.140973,-0.0062 0.09095,-0.01378 z m 1.157552,-5.3e-4 c -0.06821,-0.0071 -0.179835,-0.0071 -0.248047,0 -0.06821,0.0071 -0.01241,0.01297 0.124024,0.01297 0.136427,0 0.192235,-0.0058 0.124023,-0.01297 z m 3.68763,7.94e-4 c -0.04093,-0.0079 -0.1079,-0.0079 -0.148828,0 -0.04093,0.0079 -0.0074,0.01434 0.07441,0.01434 0.08186,0 0.115343,-0.0065 0.07441,-0.01434 z m 1.504188,5.29e-4 c -0.03218,-0.0084 -0.07683,-0.0078 -0.09922,0.0013 -0.02238,0.009 0.0039,0.01593 0.05851,0.01524 0.05457,-7.94e-4 0.07289,-0.0081 0.04071,-0.01646 z M 48.268162,42.9893 c -0.03218,-0.0084 -0.07683,-0.0078 -0.09922,0.0013 -0.02238,0.009 0.0039,0.01593 0.05851,0.01524 0.05457,-7.93e-4 0.07289,-0.0081 0.04071,-0.01646 z m 1.90173,-0.0011 c -0.05944,-0.0074 -0.148741,-0.0072 -0.198438,2.65e-4 -0.0497,0.0075 -0.0011,0.01357 0.10808,0.01339 0.109141,-1.99e-4 0.149802,-0.0064 0.09036,-0.01373 z m 2.944082,5.29e-4 c -0.04093,-0.0079 -0.1079,-0.0079 -0.148828,0 -0.04093,0.0079 -0.0074,0.01434 0.07441,0.01434 0.08186,0 0.115342,-0.0065 0.07441,-0.01434 z m 2.017448,0.0013 c -0.02273,-0.0092 -0.05994,-0.0092 -0.08268,0 -0.02273,0.0092 -0.0041,0.01669 0.04134,0.01669 0.04548,0 0.06408,-0.0075 0.04134,-0.01669 z m -7.044531,-0.03307 c -0.02273,-0.0092 -0.05994,-0.0092 -0.08268,0 -0.02273,0.0092 -0.0041,0.01669 0.04134,0.01669 0.04548,0 0.06408,-0.0075 0.04134,-0.01669 z m 2.479876,-0.0021 c -0.05944,-0.0074 -0.148741,-0.0072 -0.198438,2.64e-4 -0.0497,0.0075 -0.0011,0.01357 0.10808,0.01339 0.109141,-1.98e-4 0.149802,-0.0063 0.09036,-0.01373 z m 2.249551,5.29e-4 c -0.04093,-0.0079 -0.1079,-0.0079 -0.148828,0 -0.04093,0.0079 -0.0074,0.01434 0.07441,0.01434 0.08186,0 0.115342,-0.0065 0.07441,-0.01434 z m 2.52181,-0.0097 c 0.04169,-0.01791 0.04781,-0.02842 0.01654,-0.02842 -0.02728,0 -0.07937,0.01278 -0.115755,0.02842 -0.04169,0.01791 -0.04781,0.02842 -0.01654,0.02842 0.02729,0 0.07937,-0.01278 0.115755,-0.02842 z m -7.441407,-0.03307 c -0.03638,-0.01564 -0.08847,-0.02842 -0.115755,-0.02842 -0.03127,0 -0.02516,0.0105 0.01654,0.02842 0.03638,0.01564 0.08847,0.02842 0.115755,0.02842 0.03127,0 0.02516,-0.0105 -0.01654,-0.02842 z m 3.099994,0.0091 c -0.05944,-0.0074 -0.148741,-0.0072 -0.198438,2.64e-4 -0.0497,0.0075 -0.0011,0.01357 0.10808,0.01339 0.10914,-1.98e-4 0.149802,-0.0063 0.09036,-0.01373 z m 1.472337,2.64e-4 c -0.05002,-0.0076 -0.131879,-0.0076 -0.181901,0 -0.05002,0.0076 -0.0091,0.01379 0.09095,0.01379 0.100046,0 0.140972,-0.0062 0.09095,-0.01379 z m -0.547272,-0.03401 c -0.150934,-0.0061 -0.389059,-0.0061 -0.529167,6.6e-5 -0.14011,0.0062 -0.01662,0.01122 0.274421,0.01116 0.291042,-3.4e-5 0.405678,-0.0051 0.254746,-0.01125 z m 3.820427,-0.09331 c 0.09491,-0.04175 0.273508,-0.141311 0.396875,-0.221239 0.123367,-0.07993 1.541436,-1.250889 3.151259,-2.602132 1.609826,-1.351243 2.955822,-2.477159 2.991104,-2.502035 0.03528,-0.02487 0.05713,-0.05225 0.04856,-0.06083 -0.0086,-0.0086 -1.354571,1.108392 -2.991104,2.482154 -1.63653,1.373762 -3.077202,2.565583 -3.201495,2.648492 -0.124291,0.08291 -0.33265,0.195231 -0.463021,0.249603 -0.130368,0.05437 -0.244475,0.106349 -0.253571,0.115501 -0.02736,0.02754 0.137692,-0.02871 0.321397,-0.109519 z m -8.308506,-0.05975 c -0.163711,-0.07881 -0.36638,-0.20129 -0.450377,-0.272177 -0.084,-0.07089 -1.501658,-1.286023 -3.150359,-2.700306 -1.648701,-1.41428 -3.005005,-2.571419 -3.014012,-2.571419 -0.009,0 -0.01461,0.05581 -0.01246,0.124023 0.0037,0.116674 0.0052,0.118333 0.02479,0.02802 0.02045,-0.09399 0.08184,-0.04386 2.931308,2.393945 1.600729,1.369468 2.979719,2.554219 3.06442,2.632779 0.18083,0.167717 0.441116,0.336529 0.67282,0.436364 0.286183,0.123312 0.244316,0.07822 -0.06615,-0.07123 z m -7.1691,-0.656503 c -0.007,-0.07779 -0.01281,-0.02238 -0.01291,0.123148 -1.19e-4,0.145521 0.0056,0.209166 0.0127,0.141435 0.0071,-0.06773 0.0072,-0.186795 2.2e-4,-0.264583 z m 22.654781,-0.05048 c -0.0071,-0.06821 -0.01297,-0.01241 -0.01297,0.124023 0,0.136428 0.0058,0.192239 0.01297,0.124024 0.0071,-0.06821 0.0071,-0.179832 0,-0.248047 z m -22.62228,-0.396875 c -0.0076,-0.05002 -0.01378,-0.0091 -0.01378,0.09095 0,0.100046 0.0062,0.140975 0.01378,0.09095 0.0076,-0.05002 0.0076,-0.131876 0,-0.181901 z m 22.588802,-0.03307 c -0.0076,-0.05002 -0.01378,-0.0091 -0.01378,0.09095 0,0.100047 0.0062,0.140975 0.01378,0.09095 0.0076,-0.05002 0.0076,-0.131876 0,-0.181901 z M 40.33022,41.300783 c -0.0076,-0.05027 -0.01402,-0.01699 -0.01429,0.07396 -2.49e-4,0.09095 0.006,0.132083 0.01381,0.09141 0.0079,-0.04068 0.008,-0.115092 5.29e-4,-0.165365 z m 22.522656,-0.03307 c -0.0076,-0.05027 -0.01402,-0.01699 -0.01429,0.07396 -2.65e-4,0.09095 0.006,0.132083 0.01381,0.09141 0.0079,-0.04068 0.008,-0.115092 5.29e-4,-0.165365 z M 40.362902,40.986135 c -0.0079,-0.04093 -0.01434,-0.0074 -0.01434,0.07441 0,0.08186 0.0065,0.115343 0.01434,0.07441 0.0079,-0.04093 0.0079,-0.107899 0,-0.148828 z m 22.45651,-0.03307 c -0.0079,-0.04093 -0.01434,-0.0074 -0.01434,0.07441 0,0.08186 0.0065,0.115343 0.01434,0.07441 0.0079,-0.04093 0.0079,-0.107899 0,-0.148828 z M 40.395358,40.704632 c -0.0083,-0.03162 -0.01474,0.0021 -0.01439,0.0748 2.64e-4,0.07276 0.0071,0.09863 0.01506,0.05749 0.0079,-0.04114 0.0076,-0.100671 -7.94e-4,-0.132291 z m 22.390364,-0.03307 c -0.0083,-0.03162 -0.01474,0.0021 -0.01439,0.0748 2.65e-4,0.07276 0.0071,0.09863 0.01505,0.05749 0.0079,-0.04114 0.0076,-0.100671 -7.94e-4,-0.132291 z M 40.428431,40.440048 c -0.0083,-0.03162 -0.01474,0.0021 -0.01439,0.0748 2.64e-4,0.07276 0.0071,0.09863 0.01505,0.05749 0.0079,-0.04114 0.0076,-0.100671 -7.93e-4,-0.132292 z m 22.324218,-0.03307 c -0.0083,-0.03162 -0.01474,0.0021 -0.01439,0.0748 2.65e-4,0.07276 0.0071,0.09863 0.01505,0.05749 0.0079,-0.04114 0.0076,-0.100671 -7.94e-4,-0.132292 z m -22.291145,-0.23151 c -0.0083,-0.03162 -0.01474,0.0021 -0.01439,0.0748 2.64e-4,0.07276 0.0071,0.09863 0.01505,0.05749 0.0079,-0.04114 0.0076,-0.100672 -7.93e-4,-0.132292 z m 22.258073,-0.03307 c -0.0083,-0.03162 -0.01474,0.0021 -0.01439,0.0748 2.65e-4,0.07276 0.0071,0.09863 0.01506,0.05749 0.0079,-0.04114 0.0076,-0.100672 -7.94e-4,-0.132292 z m -22.225,-0.23151 c -0.0083,-0.03162 -0.01474,0.0021 -0.01439,0.0748 2.65e-4,0.07276 0.0071,0.09863 0.01506,0.05749 0.0079,-0.04114 0.0076,-0.100671 -7.93e-4,-0.132291 z m 22.192001,2.64e-4 c -0.0083,-0.03183 -0.01513,-0.0058 -0.01513,0.05788 0,0.06367 0.0068,0.08971 0.01513,0.05788 0.0083,-0.03183 0.0083,-0.08392 0,-0.115756 z M 40.52765,39.646179 c -0.0083,-0.03162 -0.01474,0.0021 -0.01439,0.0748 2.65e-4,0.07276 0.0071,0.09863 0.01505,0.05749 0.0079,-0.04114 0.0076,-0.100671 -7.94e-4,-0.132292 z m 22.118489,-0.05639 c -0.01291,-0.120492 -0.03041,-0.21213 -0.03889,-0.20364 -0.0085,0.0085 -0.0049,0.114017 0.008,0.234509 0.01291,0.120488 0.03041,0.212127 0.03889,0.203639 0.0085,-0.0085 0.0049,-0.114017 -0.008,-0.234508 z M 40.560797,39.415053 c -0.0083,-0.03183 -0.01513,-0.0058 -0.01513,0.05788 0,0.06367 0.0068,0.08971 0.01513,0.05788 0.0083,-0.03183 0.0083,-0.08392 0,-0.115755 z m 0.033,-0.264967 c -0.0083,-0.03162 -0.01474,0.0021 -0.01439,0.0748 2.65e-4,0.07276 0.0071,0.09863 0.01505,0.05749 0.0079,-0.04114 0.0076,-0.100671 -7.94e-4,-0.132291 z m 21.993563,0.03346 c -0.0083,-0.03183 -0.01513,-0.0058 -0.01513,0.05788 0,0.06367 0.0068,0.08971 0.01513,0.05788 0.0083,-0.03183 0.0083,-0.08392 0,-0.115755 z m -0.03307,-0.23151 c -0.0083,-0.03183 -0.01513,-0.0058 -0.01513,0.05788 0,0.06367 0.0068,0.08971 0.01513,0.05788 0.0083,-0.03183 0.0083,-0.08392 0,-0.115755 z m -21.927422,-0.06653 c -0.0083,-0.03162 -0.01474,0.0021 -0.01439,0.0748 2.65e-4,0.07276 0.0071,0.09863 0.01506,0.05749 0.0079,-0.04114 0.0076,-0.100671 -7.94e-4,-0.132292 z m 21.870109,-0.370251 c -0.02331,-0.182854 -0.04917,-0.325665 -0.05747,-0.31736 -0.0083,0.0083 0.004,0.164703 0.02727,0.347557 0.02331,0.182851 0.04916,0.325662 0.05747,0.31736 0.0083,-0.0083 -0.004,-0.164706 -0.02727,-0.347557 z m -21.837036,0.105664 c -0.0083,-0.03162 -0.01474,0.0021 -0.01439,0.0748 2.65e-4,0.07276 0.0071,0.09863 0.01506,0.05749 0.0079,-0.04114 0.0076,-0.100672 -7.94e-4,-0.132292 z m 0.03307,-0.264583 c -0.0083,-0.03162 -0.01474,0.0021 -0.01439,0.0748 2.65e-4,0.07276 0.0071,0.09863 0.01505,0.05749 0.0079,-0.04114 0.0076,-0.100671 -7.94e-4,-0.132291 z m 0.03307,-0.264584 c -0.0083,-0.03162 -0.01474,0.0021 -0.01439,0.0748 2.64e-4,0.07276 0.0071,0.09863 0.01505,0.05749 0.0079,-0.04114 0.0076,-0.100671 -7.94e-4,-0.132292 z m 21.695907,-0.09884 c -0.0083,-0.03183 -0.01513,-0.0058 -0.01513,0.05788 0,0.06367 0.0068,0.08971 0.01513,0.05788 0.0083,-0.03183 0.0083,-0.08392 0,-0.115755 z M 40.759777,37.811016 c -0.0079,-0.04093 -0.01434,-0.0074 -0.01434,0.07441 0,0.08186 0.0065,0.115343 0.01434,0.07441 0.0079,-0.04093 0.0079,-0.107899 0,-0.148828 z m 21.629144,-0.04961 c -0.0083,-0.03183 -0.01513,-0.0058 -0.01513,0.05788 0,0.06367 0.0068,0.08971 0.01513,0.05788 0.0083,-0.03183 0.0083,-0.08392 0,-0.115755 z M 40.79285,37.51336 c -0.0079,-0.04093 -0.01434,-0.0074 -0.01434,0.07441 0,0.08186 0.0065,0.115342 0.01434,0.07441 0.0079,-0.04093 0.0079,-0.1079 0,-0.148828 z m 21.562999,0.01654 c -0.0083,-0.03183 -0.01514,-0.0058 -0.01514,0.05788 0,0.06367 0.0068,0.08971 0.01514,0.05788 0.0083,-0.03183 0.0083,-0.08392 0,-0.115756 z"
         style="opacity:0;fill:#000000;fill-opacity:1;stroke:#000000;stroke-width:0.00661458;stroke-miterlimit:4;stroke-dasharray:none;stroke-opacity:1" />
      <use
         transform="translate(-0.16725084,3.2708383)"
         height="100%"
         width="100%"
         y="0"
         x="0"
         xlink:href="#path4647"
         inkscape:spray-origin="#path4647"
         id="use4693" />
      <use
         transform="translate(1.0079318,2.1442407)"
         height="100%"
         width="100%"
         y="0"
         x="0"
         xlink:href="#path4647"
         inkscape:spray-origin="#path4647"
         id="use4695" />
      <use
         transform="translate(0.41248638,1.992054)"
         height="100%"
         width="100%"
         y="0"
         x="0"
         xlink:href="#path4647"
         inkscape:spray-origin="#path4647"
         id="use4697" />
      <use
         transform="translate(3.5231053,1.8033937)"
         height="100%"
         width="100%"
         y="0"
         x="0"
         xlink:href="#path4647"
         inkscape:spray-origin="#path4647"
         id="use4699" />
      <use
         transform="translate(2.6819959,3.0895954)"
         height="100%"
         width="100%"
         y="0"
         x="0"
         xlink:href="#path4647"
         inkscape:spray-origin="#path4647"
         id="use4701" />
      <use
         transform="translate(3.3842691,2.9751612)"
         height="100%"
         width="100%"
         y="0"
         x="0"
         xlink:href="#path4647"
         inkscape:spray-origin="#path4647"
         id="use4703" />
      <use
         transform="translate(3.2941531,2.2935115)"
         height="100%"
         width="100%"
         y="0"
         x="0"
         xlink:href="#path4647"
         inkscape:spray-origin="#path4647"
         id="use4705" />
      <use
         transform="translate(3.9907321,1.9646227)"
         height="100%"
         width="100%"
         y="0"
         x="0"
         xlink:href="#path4647"
         inkscape:spray-origin="#path4647"
         id="use4715" />
      <use
         transform="translate(3.8330623,2.9858224)"
         height="100%"
         width="100%"
         y="0"
         x="0"
         xlink:href="#path4647"
         inkscape:spray-origin="#path4647"
         id="use4717" />
      <use
         transform="translate(5.2058612,1.8923302)"
         height="100%"
         width="100%"
         y="0"
         x="0"
         xlink:href="#path4647"
         inkscape:spray-origin="#path4647"
         id="use4721" />
      <use
         transform="translate(3.5756499,1.6860203)"
         height="100%"
         width="100%"
         y="0"
         x="0"
         xlink:href="#path4647"
         inkscape:spray-origin="#path4647"
         id="use4723" />
      <path
         inkscape:connector-curvature="0"
         id="path4735"
         d="m 50.360799,61.104112 c -0.350121,-0.344336 -0.807638,-0.785971 -1.166953,-1.126439 l -0.217982,-0.20655 0.03608,-0.03127 c 0.170352,-0.147613 0.486606,-0.284609 0.805027,-0.348723 0.2448,-0.04929 0.42572,-0.06528 0.735872,-0.06504 0.43194,2.65e-4 0.783476,0.03829 1.107358,0.119581 0.275839,0.06923 0.508431,0.173646 0.617366,0.277144 l 0.02974,0.02825 -0.418772,0.419174 c -0.464463,0.46491 -0.948904,0.976199 -1.150614,1.214382 -0.01992,0.02355 -0.0387,0.04307 -0.04169,0.04341 -0.003,2.64e-4 -0.153937,-0.145431 -0.335425,-0.323922 z"
         style="opacity:0;fill:#004e00;fill-opacity:1;fill-rule:evenodd;stroke:#000000;stroke-width:0.00165365;stroke-miterlimit:4;stroke-dasharray:none;stroke-opacity:1" />
      <path
         inkscape:connector-curvature="0"
         id="path4737"
         d="m 50.360799,61.104112 c -0.350121,-0.344336 -0.807638,-0.785971 -1.166953,-1.126439 l -0.217982,-0.20655 0.03608,-0.03127 c 0.170352,-0.147613 0.486606,-0.284609 0.805027,-0.348723 0.2448,-0.04929 0.42572,-0.06528 0.735872,-0.06504 0.43194,2.65e-4 0.783476,0.03829 1.107358,0.119581 0.275839,0.06923 0.508431,0.173646 0.617366,0.277144 l 0.02974,0.02825 -0.418772,0.419174 c -0.464463,0.46491 -0.948904,0.976199 -1.150614,1.214382 -0.01992,0.02355 -0.0387,0.04307 -0.04169,0.04341 -0.003,2.64e-4 -0.153937,-0.145431 -0.335425,-0.323922 z"
         style="opacity:0;fill:#004e00;fill-opacity:1;fill-rule:evenodd;stroke:#000000;stroke-width:0.00165365;stroke-miterlimit:4;stroke-dasharray:none;stroke-opacity:1" />
      <path
         transform="scale(0.26458333)"
         inkscape:connector-curvature="0"
         id="path4788"
         d="m 188.36928,228.95575 c -3.00567,-2.91324 -3.15363,-3.08772 -2.82843,-3.33535 0.54426,-0.41443 2.06787,-0.94291 3.37429,-1.17042 2.44812,-0.42632 6.75227,0.10431 8.15399,1.00525 l 0.52598,0.33807 -3.02713,3.11824 -3.02712,3.11825 z"
         style="opacity:0;fill:#004e00;fill-opacity:1;fill-rule:evenodd;stroke:#000000;stroke-width:0.03535534;stroke-miterlimit:4;stroke-dasharray:none;stroke-opacity:1" />
      <path
         transform="scale(0.26458333)"
         inkscape:connector-curvature="0"
         id="path4790"
         d="m 188.36928,228.95575 c -3.00567,-2.91324 -3.15363,-3.08772 -2.82843,-3.33535 0.54426,-0.41443 2.06787,-0.94291 3.37429,-1.17042 2.44812,-0.42632 6.75227,0.10431 8.15399,1.00525 l 0.52598,0.33807 -3.02713,3.11824 -3.02712,3.11825 z"
         style="opacity:0;fill:#004e00;fill-opacity:1;fill-rule:evenodd;stroke:#000000;stroke-width:0.03535534;stroke-miterlimit:4;stroke-dasharray:none;stroke-opacity:1" />
    </g>
    <path
       style="opacity:0;fill:#000000;fill-opacity:1;fill-rule:evenodd;stroke:#000000;stroke-width:0.025;stroke-miterlimit:4;stroke-dasharray:none;stroke-opacity:1"
       d="m 181.54455,196.81814 c -1.13437,-1.02704 -2.25937,-2.03222 -2.5,-2.23374 l -0.4375,-0.3664 0.2834,-0.23382 c 1.08955,-0.899 4.68627,-1.24141 7.2986,-0.69484 0.91319,0.19107 2.13508,0.67353 2.07887,0.82085 -0.0197,0.0517 -1.07649,1.10231 -2.34837,2.33466 l -2.3125,2.24063 z"
       id="path4993"
       inkscape:connector-curvature="0"
       transform="scale(0.26458333)" />
    <path
       style="opacity:0;fill:#000000;fill-opacity:1;fill-rule:evenodd;stroke:#000000;stroke-width:0.025;stroke-miterlimit:4;stroke-dasharray:none;stroke-opacity:1"
       d="m 181.54455,196.81814 c -1.13437,-1.02704 -2.25937,-2.03222 -2.5,-2.23374 l -0.4375,-0.3664 0.2834,-0.23382 c 1.08955,-0.899 4.68627,-1.24141 7.2986,-0.69484 0.91319,0.19107 3.08525,0.8724 3.02904,1.01972 -0.0197,0.0517 -2.02666,0.90344 -3.29854,2.13579 l -2.3125,2.24063 z"
       id="path4995"
       inkscape:connector-curvature="0"
       transform="scale(0.26458333)"
       sodipodi:nodetypes="ccccccscc" />
    <use
       id="use4997"
       inkscape:spray-origin="#path4995"
       xlink:href="#path4995"
       x="0"
       y="0"
       width="100%"
       height="100%"
       transform="translate(-1.1076032,-0.15964898)" />
    <use
       id="use4999"
       inkscape:spray-origin="#path4995"
       xlink:href="#path4995"
       x="0"
       y="0"
       width="100%"
       height="100%"
       transform="translate(0.22699171,-0.09941937)" />
    <use
       id="use5001"
       inkscape:spray-origin="#path4995"
       xlink:href="#path4995"
       x="0"
       y="0"
       width="100%"
       height="100%"
       transform="translate(-0.75471048,0.44281115)" />
    <use
       id="use5003"
       inkscape:spray-origin="#path4995"
       xlink:href="#path4995"
       x="0"
       y="0"
       width="100%"
       height="100%"
       transform="translate(-0.81839611,0.65813752)" />
    <use
       id="use5005"
       inkscape:spray-origin="#path4995"
       xlink:href="#path4995"
       x="0"
       y="0"
       width="100%"
       height="100%"
       transform="translate(-0.51040271,-0.19147306)" />
    <use
       id="use5007"
       inkscape:spray-origin="#path4995"
       xlink:href="#path4995"
       x="0"
       y="0"
       width="100%"
       height="100%"
       transform="translate(-1.384698,-0.05791339)" />
    <use
       id="use5009"
       inkscape:spray-origin="#path4995"
       xlink:href="#path4995"
       x="0"
       y="0"
       width="100%"
       height="100%"
       transform="translate(-0.71574966,1.109043)" />
    <use
       id="use5011"
       inkscape:spray-origin="#path4995"
       xlink:href="#path4995"
       x="0"
       y="0"
       width="100%"
       height="100%"
       transform="translate(0.37358861,-0.04081823)" />
    <use
       id="use5013"
       inkscape:spray-origin="#path4995"
       xlink:href="#path4995"
       x="0"
       y="0"
       width="100%"
       height="100%"
       transform="translate(0.14158891,-1.2116048)" />
    <use
       id="use5015"
       inkscape:spray-origin="#path4995"
       xlink:href="#path4995"
       x="0"
       y="0"
       width="100%"
       height="100%"
       transform="translate(0.9827007,0.32164667)" />
    <use
       id="use5017"
       inkscape:spray-origin="#path4995"
       xlink:href="#path4995"
       x="0"
       y="0"
       width="100%"
       height="100%"
       transform="translate(0.22079764,-0.05541104)" />
    <use
       id="use5019"
       inkscape:spray-origin="#path4995"
       xlink:href="#path4995"
       x="0"
       y="0"
       width="100%"
       height="100%"
       transform="translate(0.03439278,0.14956948)" />
    <use
       id="use5021"
       inkscape:spray-origin="#path4995"
       xlink:href="#path4995"
       x="0"
       y="0"
       width="100%"
       height="100%"
       transform="translate(0.254609,0.07688293)" />
    <use
       id="use5023"
       inkscape:spray-origin="#path4995"
       xlink:href="#path4995"
       x="0"
       y="0"
       width="100%"
       height="100%"
       transform="translate(0.17510736,0.5499238)" />
    <use
       id="use5025"
       inkscape:spray-origin="#path4995"
       xlink:href="#path4995"
       x="0"
       y="0"
       width="100%"
       height="100%"
       transform="translate(0.33751344,0.41394862)" />
    <use
       id="use5027"
       inkscape:spray-origin="#path4995"
       xlink:href="#path4995"
       x="0"
       y="0"
       width="100%"
       height="100%"
       transform="translate(0.54295826,0.85649754)" />
    <use
       id="use5029"
       inkscape:spray-origin="#path4995"
       xlink:href="#path4995"
       x="0"
       y="0"
       width="100%"
       height="100%"
       transform="translate(0.14010399,0.80089393)" />
    <use
       id="use5031"
       inkscape:spray-origin="#path4995"
       xlink:href="#path4995"
       x="0"
       y="0"
       width="100%"
       height="100%"
       transform="translate(0.26206616,1.0233356)" />
    <use
       id="use5033"
       inkscape:spray-origin="#path4995"
       xlink:href="#path4995"
       x="0"
       y="0"
       width="100%"
       height="100%"
       transform="translate(0.26848158,0.76857475)" />
    <use
       id="use5035"
       inkscape:spray-origin="#path4995"
       xlink:href="#path4995"
       x="0"
       y="0"
       width="100%"
       height="100%"
       transform="translate(0.03972309,0.53474272)" />
    <use
       id="use5037"
       inkscape:spray-origin="#path4995"
       xlink:href="#path4995"
       x="0"
       y="0"
       width="100%"
       height="100%"
       transform="translate(0.19844933,0.77697821)" />
  </g>
</svg>
